<svg width="103" height="80" fill="none" xmlns="http://www.w3.org/2000/svg"><path d="M22.951 0L72 7.022 67.99 33 20 28.25 22.951 0z" fill="#fff"/><path opacity=".35" d="M58.052 32.986c.113.333.256.634.562.82.307.188.716.219 1.053.281.664.125 1.328.218 1.992.312 1.37.187 2.749.363 4.128.519.97.104 2.023.166 2.953-.177a3.309 3.309 0 002.156-2.534c.255-1.267.398-2.576.593-3.853.204-1.33.398-2.648.592-3.978.205-1.34.42-2.68.746-3.988.327-1.309.726-2.597 1.063-3.916.357-1.391.644-2.793.868-4.216.225-1.454.644-3.075-.715-4.082-.593-.436-1.635 0-1.757.727a59 59 0 00-.644 5.017c-.051.654.593 1.215 1.195 1.215.695 0 1.145-.561 1.196-1.215.123-1.465.306-2.919.562-4.363l-1.758.727c-.245-.176-.204-.373-.214-.052a5.35 5.35 0 01-.062.603 51.625 51.625 0 01-.275 1.745 46.532 46.532 0 01-.787 3.541c-.623 2.368-1.277 4.684-1.655 7.115-.389 2.482-.746 4.964-1.124 7.436-.072.447-.113.935-.266 1.36-.092.24-.296.343-.48.406-.664.218-1.584.114-2.401.03a175.886 175.886 0 01-4.016-.477c-.695-.093-1.4-.187-2.105-.239-.429-.03-.797.021-1.114.364-.214.228-.419.55-.306.883l.02-.01z" fill="#B9BCD6"/><path fill-rule="evenodd" clip-rule="evenodd" d="M21.58 13.495c.449-4.454.91-8.918 1.54-13.35.033-.226.429-.172.386.053-.223 2.744-.49 5.484-.758 8.223a799.6 799.6 0 00-.494 5.181c-.193 2.217-.386 4.433-.568 6.66-.057.702-.104 1.407-.152 2.113-.104 1.555-.21 3.114-.415 4.653-.054.46-.75.493-.739 0 .04-1.665.209-3.348.376-5.018.059-.585.117-1.168.17-1.748.214-2.26.428-4.518.653-6.767zM39.506 2.842C34.237 2.078 28.956 1.313 23.72.326c-.15-.032-.117-.29.032-.257 2.259.298 4.512.644 6.768.99 1.144.175 2.29.35 3.435.52 6.478.963 12.955 1.884 19.432 2.773 3.233.439 6.456.867 9.69 1.284.92.122 1.844.233 2.77.344 2.095.253 4.196.506 6.276.877.278.043.214.503-.064.482-2.465-.193-4.929-.551-7.385-.909-.959-.14-1.916-.279-2.872-.408-6.477-.889-12.954-1.81-19.42-2.762-.958-.14-1.917-.28-2.875-.418z" fill="#424575"/><path d="M68.776 32.98a.433.433 0 01-.12.02h-.522c-1.164 0-2.328-.068-3.492-.145l-1.457-.097-2.426-.174c-.75-.058-1.502-.126-2.252-.194l-.468-.048-.109-.01h-.01l-.534-.048-.663-.068a321.775 321.775 0 01-3.035-.329c-4.83-.561-9.649-1.248-14.457-1.935a989.323 989.323 0 00-7.745-1.075l-1.763-.232a170.347 170.347 0 00-3.209-.377 194.614 194.614 0 01-5.33-.63l-.38-.048-.164-.019-.424-.058c-.022 0-.033-.01-.055-.01-.076-.029-.13-.077-.152-.155a.27.27 0 01.152-.319.32.32 0 01.131-.029l.664.029.12.01c.39.02.782.038 1.174.067.196.01.392.03.598.049 1.828.145 3.645.368 5.461.6.86.106 1.708.222 2.567.338.338.04.675.088 1.001.126 5.929.784 11.847 1.694 17.786 2.468 1.469.194 2.937.377 4.417.542l2.36.261c.218.02.446.049.664.068l.49.049c.053.01.108.01.162.019.479.048.958.097 1.436.135.414.039.827.078 1.24.107 1.12.097 2.252.174 3.372.251 1.49.097 3.003.117 4.493.223l.348.029c.098.01.196.048.261.116l.022.02c.12.145.087.338-.076.445-.022 0-.044.019-.076.029z" fill="#424575"/><path d="M68.473 32.798c.552-2.057.913-4.198 1.293-6.308.38-2.109.714-4.25 1.003-6.38.28-2.11.542-4.22.741-6.34.109-1.075.199-2.15.29-3.226.09-1.065.216-2.162.198-3.227-.009-.345-.488-.46-.551-.084-.163 1.024-.208 2.079-.307 3.112-.1 1.076-.217 2.152-.335 3.227a218.352 218.352 0 01-.795 6.413 310.5 310.5 0 01-.94 6.297c-.344 2.13-.768 4.24-1.067 6.38-.045.335.38.491.47.136z" fill="#424575"/><path opacity=".35" d="M60 32c-.423-.042-.847-.073-1.27-.115-.49-.042-.98-.094-1.47-.146-.525-1.432-1.048-2.853-1.572-4.285-.524-1.41-1.036-2.832-1.56-4.253-.557-1.505-1.103-3.01-1.66-4.525-.134-.366-.256-.763-.468-1.098.178-.25.446-.439.758-.533.713-.188 1.37.23 1.604.857.78 2.1 1.593 4.18 2.43 6.26A579.28 579.28 0 0060 32z" fill="#B9BCD6"/><path opacity=".44" d="M66 52.011a4.866 4.866 0 01-.757 1.303c-.746.916-1.813 1.552-2.868 2.083a68.999 68.999 0 01-3.903 1.792c-2.761 1.178-5.587 2.209-8.434 3.178-.458.156-.906.312-1.364.458-5.193 1.73-10.428 3.313-15.568 5.168a249.815 249.815 0 00-16.867 6.75c-.299.146-.64.178-.97.105a5.222 5.222 0 01-2.965-.136 1.175 1.175 0 01-.394-.24 1.26 1.26 0 01-.896-1.01c-.096-.635.31-1.104.885-1.323l2.772-1.052c1.035-.25 2.069-.521 3.103-.802l.757-.209 1.44-.406c.202.167.351.385.437.635 3.38-1.417 6.792-2.75 10.235-4.01h.011c1.408-.48 2.815-.97 4.212-1.46.81-.28 1.62-.572 2.43-.864 2.773-.927 5.567-1.802 8.339-2.709a266.35 266.35 0 004.67-1.562c2.634-.917 5.257-1.886 7.805-3 1.247-.542 2.505-1.095 3.7-1.761.863-.49 1.706-1.084 1.94-1.97.33-1.208-.384-2.49-.8-3.604-.298-.792-.597-1.584-.906-2.365A10.043 10.043 0 0166 52.011z" fill="#B9BCD6"/><path opacity=".44" fill-rule="evenodd" clip-rule="evenodd" d="M62.053 44.398a10.475 10.475 0 013.967 7.229 5.31 5.31 0 00.214-2.806c-.091-.592-.306-1.161-.52-1.727a51.145 51.145 0 01-.111-.297c-.257-.707-.513-1.414-.78-2.12a589.27 589.27 0 00-3.155-8.204c-.171-.428-.342-.866-.513-1.305v-.001c-.161-.407-.319-.814-.477-1.22-.157-.408-.315-.815-.475-1.222l-.065-.171-.246-.643a46.558 46.558 0 01-1.219-.117c-.47-.043-.94-.097-1.411-.15l-.754-2.196c-.252-.73-.503-1.462-.754-2.195l-1.497-4.359c-.268-.77-.532-1.544-.797-2.318s-.53-1.548-.797-2.319a22.12 22.12 0 01-.064-.19c-.106-.318-.216-.649-.385-.934a1.18 1.18 0 00-.193.846c.011.053.022.107.043.16.054.145.105.292.155.44.051.147.102.294.155.439l.011.021c1.016 2.88 2.085 5.74 3.176 8.6.257.664.514 1.33.77 1.998l.77 1.996c.107.279.214.557.321.825.031.068.058.14.086.213.02.053.041.107.064.161v.002a334.542 334.542 0 01.743 1.888.037.037 0 01.005.017l.065.16c1.037 2.656 2.074 5.312 3.09 7.968l.289.766.289.765zm-28.35 18.676a170.28 170.28 0 013.528-1.231c-.406.15-.812.297-1.219.444-.406.148-.812.295-1.219.445a498.34 498.34 0 01-4.224 1.499c1.037-.386 2.085-.771 3.133-1.157zm-13.85 4.65l-1.443.417-.76.214c-1.037.29-2.074.557-3.112.825l4.257-1.65a.993.993 0 011.058.193z" fill="#B9BCD6"/><path d="M1 33.543c12.844-4.098 36.41-12.26 49.253-16.37.441-.14.947-.28 1.356-.053.366.205.528.638.668 1.038l10.496 31.18c.173.509.345 1.082.119 1.569-.194.443-.657.691-1.088.919C50.985 57.317 23.523 67.308 11.69 70L1 33.543z" fill="#fff"/><path opacity=".58" d="M.412 34.976c1.628.124 3.225-.257 4.79-.688 1.628-.452 3.246-.935 4.854-1.408a641.548 641.548 0 009.835-2.99 1866.07 1866.07 0 0019.404-6.156l10.9-3.504c1.416-.452.809-2.62-.617-2.168-12.933 4.13-25.887 8.22-38.735 12.588-3.502 1.192-6.961 2.6-10.548 3.545-.469.124-.34.75.117.781z" fill="#B9BCD6"/><path fill-rule="evenodd" clip-rule="evenodd" d="M42.572 12.907c-.072.832-.145 1.674-.238 2.506-.075.75 1.2.781 1.19-.01a84.949 84.949 0 01.01-2.942c-.321.107-.643.214-.953.342l-.01.104zm13.16 14.434c.032-.054.064-.107.085-.16a256.246 256.246 0 00-1.51-4.322c-.268-.77-.533-1.543-.798-2.316a697.4 697.4 0 00-.797-2.316l-.064-.19c-.107-.318-.217-.648-.386-.933a1.863 1.863 0 00-.364-.45c-.514-.449-1.19-.385-1.8-.213-1.411.399-2.811.873-4.208 1.346-.511.173-1.021.346-1.532.515-3.009.984-6.018 1.99-9.027 2.995l-.322.61-.321.61-.129.245-1.616 3.028-1.082 2.021-.396.739-4.595 8.61c2.71-5.07 9.028-6.995 14.104-4.289l9.189 4.9 3.148-5.895.397-.738 1.37-2.567.375-.695.16-.31.118-.225z" fill="#FA476F"/><path d="M62.824 50.9c-.422.857-1.422 1.21-2.216 1.607-.68.343-1.36.675-2.052.997-3.463 1.628-7.03 3.053-10.577 4.51-.814.332-1.629.665-2.443.986l-.557-.31-.546-.3L32 51.5c4.886 2.71 10.969.782 13.577-4.296L50.3 38l9.37 5.196.67.375.094.054c.278.15.536.321.783.493.268.814.526 1.618.794 2.432.268.825.567 1.66.804 2.496.186.6.299 1.275.01 1.854z" fill="#3ECADD"/><path d="M45.201 47.44L50 38.174l-9-4.939c-4.967-2.728-11.148-.787-13.8 4.325-2.65 5.112-.764 11.474 4.202 14.203 4.977 2.728 11.148.787 13.8-4.325z" fill="#664277"/><path d="M62.818 51.1c-.435.85-1.466 1.2-2.284 1.592-.702.34-1.403.669-2.115.987-3.57 1.614-7.246 3.026-10.901 4.47-.84.329-1.68.658-2.519.977a392.016 392.016 0 01-7.916 2.972c-.807.297-1.614.584-2.422.881-1.392.5-2.795.998-4.197 1.487h-.01c-3.518 1.23-7.056 2.399-10.626 3.44l-1.434.413-.755.212c-1.03.287-2.061.552-3.092.818-.882.223-1.774.435-2.656.637-.595.138-.85-.775-.266-.913h.01c.68-.149 1.34-.35 2.02-.52 7.83-2.06 15.523-4.714 23.152-7.432 2.37-.838 4.728-1.709 7.077-2.6 5.164-1.975 10.274-4.098 15.268-6.476.691-.33 1.403-.648 2.062-1.03.308-.18.563-.35.584-.733.021-.35-.16-.743-.276-1.072-.255-.732-.5-1.465-.744-2.197-.404-1.179-.797-2.368-1.2-3.546-.617-1.816-1.233-3.642-1.839-5.457-.584-1.72-1.158-3.45-1.732-5.18-.085-.266-.18-.542-.265-.807-.32-.945-.627-1.89-.946-2.835-1.041-3.142-2.083-6.274-3.124-9.416-.191-.563-.33-1.794-1.084-1.773-.457.01-.956.244-1.392.382-.913.287-1.816.573-2.73.87l-5.961 1.943c-1.987.658-3.963 1.306-5.93 1.964-2.56.85-5.12 1.699-7.681 2.559l-4.527 1.497-1.349.445-.223.075-.34.106c-2.465.817-4.94 1.624-7.406 2.42-3.91 1.274-7.82 2.57-11.784 3.674-.276.074-.371-.33-.116-.425.87-.319 1.753-.627 2.624-.924 5.504-1.9 11.018-3.78 16.533-5.626l.818-.276 9.659-3.249c1.466-.499 2.943-.987 4.41-1.486 2.985-.998 5.97-1.996 8.956-2.973 1.892-.626 3.783-1.305 5.696-1.847.605-.17 1.275-.233 1.785.212.138.128.265.276.36.446.203.34.32.743.447 1.115.531 1.529 1.052 3.068 1.583 4.597l1.488 4.32c.5 1.455.999 2.899 1.498 4.353l.276.807.096.287.67 1.942a1664.31 1664.31 0 012.348 6.88c.255.764.52 1.528.775 2.293.276.807.542 1.603.818 2.41.277.817.585 1.645.83 2.473.18.595.297 1.264 0 1.837z" fill="#424575"/><path d="M69.43 58.047c-1.496 2.351-4.49 6.12-5.987 8.471-.983 1.546-2.683 3.371-3.11 5.154-.3 1.245-.29 2.598.267 3.736.556 1.138 1.742 2.019 3.014 1.976 1.54-.054 3.218-1.933 4.127-3.178 2.523-3.447 6.425-7.849 8.232-11.714l-6.543-4.445z" fill="#EDEEF4"/><path d="M61.144 74.81c.107-.716 0-1.464.032-2.18.053-.832.181-1.676.545-2.424.343-.705.878-1.26 1.402-1.826a45.685 45.685 0 001.648-1.869c2.044-2.392 4.152-4.913 5.671-7.69.342-.619-.514-1.067-.93-.544-1.007 1.303-1.777 2.798-2.783 4.112-1.016 1.345-2.012 2.702-3.028 4.037-.931 1.217-2.13 2.413-2.665 3.866a6.82 6.82 0 00-.374 2.221c-.01.727-.032 1.57.182 2.275.043.16.278.182.3.021z" fill="#fff"/><path d="M69.306 58.455c.545.545.995 1.175 1.519 1.74a8.657 8.657 0 001.796 1.443c.45.288 1.208.555 1.519 1.004.352.512-.182 1.346-.45 1.773-1.924 3.044-4.213 5.896-6.394 8.758-1.155 1.506-2.492 2.692-4.481 2.83-.802.054-.802 1.303 0 1.25a6.687 6.687 0 004.63-2.296c1.337-1.517 2.503-3.215 3.711-4.839 1.22-1.634 2.438-3.29 3.54-5.009.438-.683.855-1.527.737-2.36-.085-.62-.491-1.058-1.005-1.389-.813-.534-1.69-.93-2.438-1.57-.748-.64-1.283-1.517-2.139-2.061-.427-.289-.909.352-.545.726z" fill="#D0D2DD"/><path d="M81.25 58.626l-.857 1.582a3.536 3.536 0 01-4.818 1.422l-3.983-2.175a3.576 3.576 0 01-1.413-4.845l.857-1.583a3.535 3.535 0 014.818-1.421l3.982 2.185c1.713.926 2.356 3.101 1.414 4.835z" fill="#FFE33B"/><path fill-rule="evenodd" clip-rule="evenodd" d="M74.227 54.232c.286-.44.577-.887.955-1.235.01-.011.032-.022.053 0 .032 0 .054.032.043.064-.092.572-.44 1.065-.777 1.54-.093.13-.184.26-.269.389l-.187.286c-.384.592-.75 1.154-1.274 1.653-.096.096-.214-.022-.171-.129.271-.65.657-1.184 1.058-1.74.088-.122.177-.245.265-.37.103-.149.203-.303.304-.458zm-8.193 7.95c1.074-1.41 2.148-2.82 3.151-4.279.15-.225.502-.021.374.225-.956 1.59-2.042 3.101-3.128 4.612-.612.85-1.224 1.702-1.812 2.566-.235.35-.467.701-.7 1.053-.464.702-.93 1.404-1.413 2.097-.822 1.168-1.664 2.379-1.889 3.825-.234 1.49.097 3.182 1.398 4.093 1.238.857 2.476.407 3.521-.504.849-.733 1.51-1.614 2.177-2.504l.342-.453c.442-.578.887-1.151 1.333-1.724.446-.574.891-1.147 1.334-1.726 1.76-2.292 3.468-4.639 4.844-7.189.192-.375.843-.107.683.29-1.188 2.905-3.2 5.435-5.154 7.89l-.768.97c-.453.573-.893 1.157-1.334 1.74-.44.585-.88 1.169-1.333 1.742-.843 1.06-1.868 2.143-3.148 2.657-1.302.525-2.731.021-3.67-.964-1.089-1.147-1.366-2.797-1.163-4.329.213-1.585 1.045-2.86 1.974-4.114.477-.641.94-1.293 1.403-1.945.334-.47.668-.941 1.008-1.408.646-.882 1.308-1.751 1.97-2.62zm10.759-7.985c-.378.348-.67.796-.955 1.235-.1.155-.2.31-.304.457-.089.126-.177.25-.266.371-.4.556-.786 1.09-1.057 1.74-.043.107.075.225.17.129.53-.512.907-1.091 1.305-1.7l.157-.24c.085-.128.176-.257.269-.387.336-.476.685-.969.777-1.541.01-.032-.01-.064-.043-.064-.02-.022-.042-.011-.053 0zm.592 2.574c.286-.44.577-.887.955-1.236.011-.01.032-.02.054 0 .032 0 .053.033.042.065-.092.572-.44 1.065-.777 1.54a16.033 16.033 0 00-.455.675c-.385.592-.75 1.154-1.275 1.653-.096.096-.213-.022-.17-.13.27-.649.656-1.184 1.057-1.739.088-.122.177-.245.265-.37.103-.149.204-.303.304-.458z" fill="#424575"/><path d="M79.028 53.05a9.897 9.897 0 00-3.018-2.48c-.385-.204-.824-.418-1.263-.44-.438-.021-.834.215-1.177.472-.47.344-.76.73-1.091 1.203-.514.75-1.038 1.491-1.552 2.243-.439.633-.878 1.266-1.306 1.9-.364.557-.556 1.137-.235 1.77.3.601.888 1.03 1.391 1.449.642.547 1.306 1.063 1.97 1.588.577.451 1.166.88 1.765 1.31.6.43 1.263.998 2.033 1.04.632.033 1.07-.31 1.434-.793.514-.666 1.006-1.353 1.52-2.018.492-.633.963-1.266 1.445-1.91.428-.57.973-1.17 1.102-1.9.224-1.224-.953-2.243-1.798-2.909-1.113-.869-2.215-1.76-3.403-2.522-.471-.3-.867.43-.428.74a61.22 61.22 0 012.483 1.879c.706.558 1.551 1.116 2.033 1.91.278.462.246.827-.022 1.288-.32.548-.749 1.041-1.123 1.556-.824 1.106-1.584 2.254-2.44 3.338-.204.247-.375.472-.728.462-.3-.01-.578-.215-.824-.387-.6-.407-1.156-.858-1.723-1.309a112.292 112.292 0 01-3.039-2.447c-.417-.354-1.027-.773-.75-1.384.268-.59.729-1.127 1.082-1.675.353-.547.685-1.052 1.016-1.588.375-.59.728-1.245 1.156-1.792.236-.301.706-.73 1.092-.805.385-.075.91.214 1.241.397 1.07.569 1.98 1.384 3.018 2.007.128.075.235-.097.15-.194h-.011z" fill="#424575"/><path d="M79.028 53.05a9.897 9.897 0 00-3.018-2.48c-.385-.204-.824-.418-1.263-.44-.438-.021-.834.215-1.177.472-.47.344-.76.73-1.091 1.203-.514.75-1.038 1.491-1.552 2.243-.439.633-.878 1.266-1.306 1.9-.364.557-.556 1.137-.235 1.77.3.601.888 1.03 1.391 1.449.642.547 1.306 1.063 1.97 1.588.577.451 1.166.88 1.765 1.31.6.43 1.263.998 2.033 1.04.632.033 1.07-.31 1.434-.793.514-.666 1.006-1.353 1.52-2.018.492-.633.963-1.266 1.445-1.91.428-.57.973-1.17 1.102-1.9.224-1.224-.953-2.243-1.798-2.909-1.113-.869-2.215-1.76-3.403-2.522-.471-.3-.867.43-.428.74a61.22 61.22 0 012.483 1.879c.706.558 1.551 1.116 2.033 1.91.278.462.246.827-.022 1.288-.32.548-.749 1.041-1.123 1.556-.824 1.106-1.584 2.254-2.44 3.338-.204.247-.375.472-.728.462-.3-.01-.578-.215-.824-.387-.6-.407-1.156-.858-1.723-1.309a112.292 112.292 0 01-3.039-2.447c-.417-.354-1.027-.773-.75-1.384.268-.59.729-1.127 1.082-1.675.353-.547.685-1.052 1.016-1.588.375-.59.728-1.245 1.156-1.792.236-.301.706-.73 1.092-.805.385-.075.91.214 1.241.397 1.07.569 1.98 1.384 3.018 2.007.128.075.235-.097.15-.194h-.011z" fill="#424575"/><path opacity=".5" d="M67.5 69.769c-.918 1.792-2.274 3.26-3.78 4.567-.224.195.075.583.32.41 1.698-1.22 2.862-2.969 3.62-4.913.033-.086-.117-.15-.16-.064z" fill="#fff"/><path opacity=".14" d="M60.403 76.454c.448 2.092 2.786 2.925 4.708 2.519 2.38-.502 3.822-2.915 5.189-4.697.758-.993 1.345-2.029 1.985-3.096.588-.983 1.292-1.88 2.007-2.755 1.506-1.836 2.787-3.854 4.41-5.583 1.59-1.698 3.704-3.544 4.131-5.957.214-1.228-1.377-1.644-1.847-.513-.736 1.794-1.91 3.128-3.224 4.516a27.153 27.153 0 00-1.996 2.274c-.673.886-1.282 1.815-1.965 2.69-1.366 1.74-2.669 3.449-3.726 5.402-.512.95-1.185 1.815-1.836 2.67-.64.843-1.228 1.729-2.028 2.444-.748.662-1.805 1.25-2.83 1.26-1.024.01-2.113-.449-2.7-1.292a.155.155 0 00-.214-.053c-.053.042-.085.106-.064.17z" fill="#B9BCD6"/><path d="M27.51 7.212c-.198 1.145-.198 2.361-.3 3.517a280.667 280.667 0 01-.342 3.728 116.2 116.2 0 01-.428 3.678l-.238 1.748c-.08.563-.293 1.246-.159 1.81.088.391.46.391.635.1.261-.443.261-1.196.333-1.739.08-.583.15-1.166.214-1.758.143-1.216.27-2.432.38-3.648a89.43 89.43 0 00.262-3.638c.064-1.216.198-2.522.095-3.738-.031-.292-.388-.402-.452-.06zm4.987-1.057c-.322 1.866-.384 3.774-.631 5.65a82.843 82.843 0 01-.433 2.99c-.148.922-.396 1.855-.433 2.788-.012.477.841.583.977.117.272-.901.31-1.866.408-2.788.112-.965.21-1.93.297-2.895.16-1.908.408-3.89.285-5.798 0-.233-.433-.318-.47-.064zm4.963 1.032c-.167.757-.226 1.544-.324 2.321-.099.747-.216 1.483-.324 2.23-.236 1.514-.59 3.017-.805 4.53-.099.717.932 1.06 1.09.313.314-1.503.431-3.098.589-4.621.157-1.524.383-3.148.294-4.692-.02-.292-.451-.383-.52-.08zm6.472 4.173c0 .288-.009.575-.009.862a134.484 134.484 0 00-.008 3.162c.008.839-.97.804-.913 0 .075-.932.132-1.874.19-2.805l.074-1.334c.074-1.322.082-2.69.23-4 .05-.402.469-.264.485.092.058 1.322-.033 2.69-.05 4.023z" fill="#424575"/><path opacity=".14" d="M74.463 27.998c-.363.386-.363.879-.395 1.383-.043.632.096 1.286.288 1.887.374 1.2 1.058 2.283 1.742 3.334 1.464 2.23 2.917 4.46 4.38 6.7 1.368 2.092 2.8 4.16 4.552 5.962a37.97 37.97 0 005.717 4.739c1.1.75 2.222 1.618 3.547 1.897 1.271.268 2.586.107 3.686-.59.449-.289.171-1.06-.374-.89-1.004.312-2.094.387-3.077-.02-.983-.408-1.849-1.17-2.682-1.823-1.795-1.405-3.6-2.766-5.214-4.364-1.645-1.63-2.992-3.495-4.263-5.425a1012.299 1012.299 0 01-4.039-6.143c-.737-1.115-1.496-2.209-2.105-3.41a15.196 15.196 0 01-.705-1.661c-.192-.526-.342-1.18-.748-1.565-.096-.097-.224-.097-.31-.011z" fill="#B9BCD6"/><path d="M76.646 23.47a5.825 5.825 0 018.214.696l16.385 19.464a5.864 5.864 0 01-.694 8.238 5.825 5.825 0 01-8.214-.697L75.951 31.707a5.865 5.865 0 01.695-8.237z" fill="#7A82CE"/><path fill-rule="evenodd" clip-rule="evenodd" d="M82.725 30.895c1.502-1.148 3.186-2.027 5.042-2.435.3-.064.525.376.214.515-1.587.75-3.153 1.62-4.494 2.767-1.384 1.18-2.424 2.52-3.454 3.99-.462.654-1.47.096-1.084-.633.87-1.641 2.307-3.089 3.776-4.204zM97.84 41.608c.196-.25.395-.502.633-.697.268-.225.74-.021.622.365-.257.836-.933 1.705-1.47 2.392-.578.74-1.2 1.437-1.887 2.09a26.458 26.458 0 01-2.22 1.889l-.24.18c-.667.507-1.365 1.037-2.131 1.353-.601.247-1.137-.708-.644-1.105.397-.318.83-.592 1.262-.866.34-.216.68-.431 1.002-.667a21.992 21.992 0 002.038-1.705c.665-.622 1.287-1.287 1.909-1.963.119-.133.24-.261.36-.39.162-.172.323-.343.477-.522a8.97 8.97 0 00.289-.354z" fill="#5555A3"/><path d="M98.063 40.102c-.738.535-1.337 1.317-1.99 1.96-.716.707-1.433 1.393-2.214 2.036a36.193 36.193 0 01-4.899 3.332c-.706.407-.085 1.414.631 1.071a21.165 21.165 0 005.092-3.46 22.01 22.01 0 002.096-2.143c.61-.729 1.359-1.586 1.669-2.496.085-.215-.193-.44-.385-.3zm-9.456-11.25c-1.08-.096-2.086.418-2.984.954a26.237 26.237 0 00-2.653 1.8c-1.711 1.317-2.973 2.87-3.594 4.97-.17.569.717.965.974.408.77-1.66 2.085-3.118 3.412-4.36a21.689 21.689 0 012.192-1.768c.856-.622 1.69-1.286 2.739-1.522.267-.053.17-.45-.086-.482zm-.685 5.668h.011l-.128.021h.032l-.14-.021.022.01a.583.583 0 00.332 0l-.16.022h.042l-.16-.022.032.011-.15-.064c.022.01.032.021.054.032.15.086.331.107.492.064.16-.043.3-.15.385-.3a.664.664 0 00.064-.492.634.634 0 00-.3-.386.672.672 0 00-.353-.097c-.064 0-.117.011-.181.022l-.022.01a.566.566 0 00-.182.086.563.563 0 00-.15.129.705.705 0 00-.181.428c0 .065 0 .118.021.172a.822.822 0 00.15.268c.128.107.31.16.47.107zm1.434 1.424l-.021-.128.021-.129.053-.118v.011l.086-.107.107-.086h-.01l.128-.053a.688.688 0 00-.268.16l.118-.085h-.01l.138-.054h-.01l.15-.021h-.011l.15.021h-.011l.139.054c-.01 0-.01-.011-.022-.011l.118.096-.01-.01.096.118s-.011-.011-.011-.022l.064.14v-.011l.022.16v-.01a.612.612 0 00-.62-.611c-.054 0-.097.01-.15.022a.626.626 0 00-.364.278.621.621 0 000 .61.72.72 0 00.385.3.62.62 0 00.342 0 .613.613 0 00.289-.17.61.61 0 00.171-.504.545.545 0 00-.278-.418.514.514 0 00-.353-.064.52.52 0 00-.3.139.385.385 0 00-.075.107.475.475 0 00-.042.364l-.011.032zm1.604 1.683a.517.517 0 00.16.236l-.074-.568c0 .011-.01.022-.01.022l.074-.097-.01.011.106-.075a.735.735 0 00-.203.203l.086-.107c-.01.011-.01.022-.022.022l.107-.086a.081.081 0 01-.043.021l.129-.053-.032.01.139-.02a.593.593 0 00-.3.074c-.042.022-.085.065-.128.097l.107-.086-.01.01.117-.053h-.01a.677.677 0 00-.258.171.45.45 0 00-.106.3c0 .097.032.193.074.28.065.106.16.192.268.235a.614.614 0 00.652-.14.675.675 0 00.204-.439.55.55 0 00-.279-.482.463.463 0 00-.47 0c-.032.022-.075.054-.107.075a.42.42 0 00-.16.44zm2 2.378a.6.6 0 00.428-.182.609.609 0 000-.857.603.603 0 00-.845-.01l-.01.01a.606.606 0 00-.01.846l.01.011a.6.6 0 00.428.182zm-6.813-3.985h.01l-.127.021h.032l-.14-.021.022.01a.581.581 0 00.331 0l-.16.022h.043l-.16-.021.031.01-.15-.064c.022.01.033.022.054.032a.66.66 0 00.492.065c.16-.043.3-.15.385-.3a.664.664 0 00.064-.493.634.634 0 00-.299-.386.672.672 0 00-.353-.096c-.064 0-.118.01-.182.021l-.021.01c-.064.022-.129.044-.182.086a.564.564 0 00-.15.129.705.705 0 00-.182.428c0 .065 0 .118.022.172a.823.823 0 00.15.268c.128.118.31.16.47.107zm1.433 1.436l-.021-.129.021-.128.054-.118v.01l.085-.107.107-.085h-.01l.128-.054a.687.687 0 00-.267.16l.117-.085h-.01l.139-.054h-.011l.15-.021h-.011l.15.021h-.01l.138.054c-.01 0-.01-.01-.021-.01l.117.096-.01-.011.096.118s-.01-.01-.01-.022l.063.14v-.011l.022.16v-.01a.612.612 0 00-.62-.61c-.054 0-.097.01-.15.02a.627.627 0 00-.364.28.621.621 0 000 .61.72.72 0 00.385.3.618.618 0 00.342 0 .613.613 0 00.29-.172.61.61 0 00.17-.503.545.545 0 00-.278-.418.514.514 0 00-.353-.064.52.52 0 00-.3.14.385.385 0 00-.074.106.475.475 0 00-.043.364l-.01.033zm1.605 1.671a.517.517 0 00.16.236l-.074-.568c0 .01-.011.021-.011.021l.075-.096-.01.01.106-.074a.735.735 0 00-.203.203l.085-.107c-.01.01-.01.021-.021.021l.107-.085a.08.08 0 01-.043.021l.129-.053-.033.01.14-.021a.592.592 0 00-.3.075c-.043.021-.086.064-.128.096l.107-.086-.011.011.117-.053h-.01a.678.678 0 00-.257.171.45.45 0 00-.107.3c0 .096.032.193.075.279.064.107.16.192.267.235a.614.614 0 00.653-.139.675.675 0 00.203-.44.55.55 0 00-.278-.481.463.463 0 00-.47 0c-.033.021-.076.053-.108.075-.139.117-.203.278-.16.439zm2 2.389a.6.6 0 00.428-.182.605.605 0 00.01-.847l-.01-.01a.606.606 0 00-.856.857.599.599 0 00.428.182zm-6.845-3.953h.01l-.128.021h.032l-.14-.02.022.01a.58.58 0 00.332 0l-.16.021h.042l-.16-.021.032.01-.15-.064c.021.011.032.022.053.032a.633.633 0 00.877-.236.664.664 0 00.065-.492.633.633 0 00-.3-.386.672.672 0 00-.353-.096c-.064 0-.118.01-.182.021l-.021.01c-.064.022-.128.044-.182.087a.564.564 0 00-.15.128.706.706 0 00-.181.429c0 .053 0 .118.02.171a.825.825 0 00.15.268c.118.096.3.14.471.107zm1.422 1.425l-.021-.129.021-.128.053-.118v.01l.086-.106.107-.086h-.01l.128-.054a.689.689 0 00-.268.16l.118-.085h-.01l.138-.053h-.01l.15-.022h-.011l.15.022h-.011l.139.053c-.01 0-.01-.01-.022-.01l.118.096-.01-.01.096.117s-.011-.01-.011-.021l.064.139v-.01l.022.16v-.01a.612.612 0 00-.62-.611c-.054 0-.097.01-.15.02a.627.627 0 00-.364.28.621.621 0 000 .61.72.72 0 00.385.3.618.618 0 00.342 0 .613.613 0 00.289-.171.61.61 0 00.171-.504.545.545 0 00-.278-.418.513.513 0 00-.353-.064.52.52 0 00-.3.14.385.385 0 00-.075.107.475.475 0 00-.042.364l-.011.032zm1.604 1.672a.517.517 0 00.16.235l-.074-.568c0 .01-.01.021-.01.021l.074-.096-.01.01.106-.074a.737.737 0 00-.203.203l.086-.107c-.01.01-.01.022-.022.022l.107-.086a.08.08 0 01-.042.021l.128-.053-.032.01.139-.021a.592.592 0 00-.3.075c-.042.021-.085.064-.128.096l.107-.085-.01.01.117-.053h-.01a.679.679 0 00-.258.171.45.45 0 00-.106.3c0 .097.032.193.074.279a.57.57 0 00.268.236.614.614 0 00.652-.14.675.675 0 00.204-.439.55.55 0 00-.278-.482.463.463 0 00-.471 0c-.032.021-.075.053-.107.075a.456.456 0 00-.16.44zm2.001 2.388c.16 0 .31-.064.427-.182a.605.605 0 00.011-.846l-.01-.011a.606.606 0 00-.856.857.618.618 0 00.428.182z" fill="#424575"/><path d="M88.201 30.627c.203.513.448.993.736 1.462l-.128-.48c.085.79.853 1.355 1.408 1.867.395.374.81.726 1.237 1.068.342.266.726.608 1.163.725 1.066.288 1.813-.853 1.312-1.76-.256-.48-.683-.918-1.046-1.313-.597-.64-1.183-1.27-1.78-1.9-.62-.661-1.409-1.355-2.368-1.323-.427.01-.875.214-1.28.352-.502.171-1.035.352-1.483.64-.555.353-.928.865-1.365 1.334-.438.47-.896.94-1.365 1.398a35.22 35.22 0 01-2.88 2.476c-.533.416-.822 1.078-.448 1.707.32.555 1.152.833 1.706.449.779-.523 1.344-1.196 1.824-1.996.373-.619.672-1.216 1.184-1.686 1.13-1.046 2.773-2.06 4.288-1.238 1.536.843 2.805 2.263 3.882 3.629.534.661 1.013 1.365 1.483 2.08.266.395.533.8.789 1.206l.384.608.192.3c.117.234.139.202.032-.097l.17-.63c.086-.095.043-.063-.117.097l-.309.277-.47.416-1.087.971c-.725.64-1.45 1.291-2.176 1.932l-1.088.96c-.17.15-.576.63-.736.662-.203.032-.523-.16-.704-.246a5.611 5.611 0 01-.96-.608c-1.322-1.035-2.474-2.4-3.551-3.681a43.002 43.002 0 01-1.622-2.06 14.439 14.439 0 00-.81-1.003c-.022-.032-.235-.31-.128-.16-.086-.128-.075-.032-.096-.181l-1.248 1.248c.202 0 .405-.032.597-.085.085-.022.384-.075.139-.075l-.63-.17c.694.33 1.334 1.056 1.899 1.568.661.598 1.29 1.216 1.92 1.846 1.248 1.238 2.453 2.54 3.807 3.65.747.618 1.835 1.237 2.806.715 1.098-.588.896-1.836.437-2.775-.373-.758-.97-1.398-1.568-1.985-.683-.661-1.387-1.312-2.07-1.974l-2.431-2.305-1.141-1.088-.608-.577-.224-.213-.224-.214c-.139-.138-.117-.085.075.171v.651l.031-.096-.32.555-.5.235c-.086-.01-.086 0 .01.01.128.043.256.086.384.107a2.9 2.9 0 01.501.203c.406.203.79.448 1.141.736.832.672 1.547 1.473 2.283 2.252.853.896 1.75 1.76 2.688 2.572.981.853 2.389 1.771 3.658.832.683-.512.81-1.291.256-1.964-1.259-1.536-2.794-2.827-4.266-4.161l-4.8-4.343.192 1.515s-.064.064-.075.053c-.074-.042.214.01.086-.01.256.042.501.117.736.224.672.266 1.333.555 2.005.821l3.946 1.622c.502.203 1.152-.138 1.408-.576.277-.49.192-1.11-.192-1.515-1.493-1.644-3.54-2.508-5.546-3.33-.565-.234-1.27.203-1.472.726-.224.555-.043 1.26.512 1.558a16.253 16.253 0 015.077 4.332l.885-2.134c-1.109 0-2.144-.352-3.189-.704-1.322-.448-2.261 1.686-.96 2.284a80.725 80.725 0 005.141 2.187c.576.224 1.259-.192 1.472-.725.245-.598.021-1.206-.512-1.558a64.453 64.453 0 01-4.949-3.725l-1.514 1.964a9.415 9.415 0 012.474 1.483c.715.619 1.27 1.366 1.952 2.017.693.672 1.504 1.174 2.464 1.334.554.085-.128-.246-.043-.288-.021.15-.053.288-.107.427-.138.266-.362.49-.629.63l1.835.746c-.299-.854-.384-1.75-.779-2.56a3.203 3.203 0 00-1.856-1.644c-1.333-.46-2.229 1.643-.96 2.283-.053-.085-.106-.181-.16-.267l1.206-1.579a9.351 9.351 0 01-2.528-.576c-.63-.235-1.366.256-1.536.875-.192.694.234 1.302.874 1.537a11.27 11.27 0 003.19.661c.789.064 1.45-.853 1.205-1.58-.182-.533-.48-.97-.992-1.226l-.96 2.283a.85.85 0 01.181.16c.107.15.181.31.235.48.192.598.267 1.228.48 1.815.267.768 1.088 1.163 1.834.747 1.142-.64 1.974-1.89 1.984-3.212 0-.78-.352-1.516-1.045-1.89-.48-.255-1.12-.234-1.515-.458-.842-.48-1.471-1.494-2.207-2.177a10.824 10.824 0 00-3.307-2.166c-.576-.245-1.205-.224-1.61.32-.342.459-.384 1.238.096 1.643a72.79 72.79 0 005.45 4.109l.96-2.284a70.737 70.737 0 01-4.544-1.931l-.96 2.283c1.248.416 2.517.8 3.85.8.502 0 .95-.309 1.142-.768.203-.512.064-.95-.256-1.366a17.93 17.93 0 00-5.59-4.727l-.959 2.284c1.61.661 3.253 1.376 4.448 2.689l1.216-2.092-4.917-2.027c-.768-.32-1.579-.747-2.443-.736-.885.01-1.706.426-2.165 1.195-.277.459-.213 1.152.192 1.515l4.8 4.343c1.471 1.334 2.997 2.625 4.266 4.162l.256-1.964c-.235.171-.021-.032.075.043.053.043-.043.021-.054 0-.032-.053-.224-.128-.288-.17a13.348 13.348 0 01-1.098-.961 34.997 34.997 0 01-2.005-1.974c-1.11-1.174-2.23-2.412-3.659-3.212-.704-.395-1.61-.78-2.432-.769-1.194.022-2.016 1.249-1.344 2.327.256.405.694.736 1.046 1.067l1.14 1.088 2.209 2.092 2.431 2.305c.363.33.704.672 1.014 1.046.106.138.202.288.288.437.042.075.074.15.117.224.181.278-.213.288.139-.277l.448-.448c.341-.203.501.053.096-.246a7.323 7.323 0 01-.534-.47c-.405-.362-.789-.736-1.183-1.11-.822-.789-1.622-1.61-2.443-2.41a48.991 48.991 0 00-2.432-2.274 15.133 15.133 0 00-1.376-1.099 1.573 1.573 0 00-1.44-.192c-.042.021-.288.075-.117.064-.618.021-1.333.555-1.248 1.248.107.886.427 1.495 1.003 2.167.522.587.96 1.248 1.45 1.867a43.633 43.633 0 003.424 3.863c1.173 1.163 2.613 2.358 4.33 2.519 1.067.095 1.77-.577 2.507-1.228.672-.597 1.355-1.195 2.026-1.792a352.64 352.64 0 002.102-1.868c.64-.576 1.674-1.195 1.823-2.102.15-.875-.575-1.697-1.034-2.401a51.31 51.31 0 00-1.301-1.942c-.939-1.323-1.942-2.615-3.115-3.735-1.237-1.185-2.698-2.39-4.447-2.604-1.974-.245-3.84.918-5.28 2.166-.597.513-1.035 1.185-1.43 1.857-.351.608-.64 1.174-1.183 1.537l1.258 2.155c1.355-1.045 2.677-2.134 3.883-3.361.576-.587 1.077-1.27 1.674-1.835-.15.138.16-.096.214-.128.053-.032.309-.15.298-.15.31-.128.63-.224.95-.33.042-.011.32-.065.34-.118a.618.618 0 01-.34 0c.127.043.117.032-.022-.01.278.245.235.138.523.394.416.384.79.8 1.194 1.195.459.438.928.886 1.366 1.345.096.128.202.245.32.363.085.064-.16-.256-.054-.064.01.02.022.032.032.053a1.019 1.019 0 01-.096-.79l.288-.501c1.035-.096 1.376-.192 1.003-.288-.096-.032-.032-.011.192.085a.497.497 0 01-.107-.053c-.106-.075-.213-.128-.32-.192-.138-.086-.277-.192-.405-.289l-.192-.138-.139-.107.043.032a18.406 18.406 0 01-.992-.822c-.48-.416-.843-.875-1.493-.96l.48.128a5.751 5.751 0 01-1.003-.758c-.47-.395-1.323.011-1.088.62z" fill="#7A82CE"/><path opacity=".14" d="M74.463 27.998c-.363.386-.363.879-.395 1.383-.043.632.096 1.286.288 1.887.374 1.2 1.058 2.283 1.742 3.334 1.464 2.23 2.917 4.46 4.38 6.7 1.368 2.092 2.8 4.16 4.552 5.962a37.97 37.97 0 005.717 4.739c1.1.75 2.222 1.618 3.547 1.897 1.271.268 2.586.107 3.686-.59.449-.289.171-1.06-.374-.89-1.004.312-2.094.387-3.077-.02-.983-.408-1.849-1.17-2.682-1.823-1.795-1.405-3.6-2.766-5.214-4.364-1.645-1.63-2.992-3.495-4.263-5.425a1012.299 1012.299 0 01-4.039-6.143c-.737-1.115-1.496-2.209-2.105-3.41a15.196 15.196 0 01-.705-1.661c-.192-.526-.342-1.18-.748-1.565-.096-.097-.224-.097-.31-.011z" fill="#B9BCD6"/><path fill-rule="evenodd" clip-rule="evenodd" d="M82.725 30.895c1.502-1.148 3.186-2.027 5.042-2.435.3-.064.525.376.214.515-1.587.75-3.153 1.62-4.494 2.767-1.384 1.18-2.424 2.52-3.454 3.99-.462.654-1.47.096-1.084-.633.87-1.641 2.307-3.089 3.776-4.204zM97.84 41.608c.196-.25.395-.502.633-.697.268-.225.74-.021.622.365-.257.836-.933 1.705-1.47 2.392-.578.74-1.2 1.437-1.887 2.09a26.458 26.458 0 01-2.22 1.889l-.24.18c-.667.507-1.365 1.037-2.131 1.353-.601.247-1.137-.708-.644-1.105.397-.318.83-.592 1.262-.866.34-.216.68-.431 1.002-.667a21.992 21.992 0 002.038-1.705c.665-.622 1.287-1.287 1.909-1.963.119-.133.24-.261.36-.39.162-.172.323-.343.477-.522a8.97 8.97 0 00.289-.354z" fill="#5555A3"/><path d="M88.201 30.627c.203.513.448.993.736 1.462l-.128-.48c.085.79.853 1.355 1.408 1.867.395.374.81.726 1.237 1.068.342.266.726.608 1.163.725 1.066.288 1.813-.853 1.312-1.76-.256-.48-.683-.918-1.046-1.313-.597-.64-1.183-1.27-1.78-1.9-.62-.661-1.409-1.355-2.368-1.323-.427.01-.875.214-1.28.352-.502.171-1.035.352-1.483.64-.555.353-.928.865-1.365 1.334-.438.47-.896.94-1.365 1.398a35.22 35.22 0 01-2.88 2.476c-.533.416-.822 1.078-.448 1.707.32.555 1.152.833 1.706.449.779-.523 1.344-1.196 1.824-1.996.373-.619.672-1.216 1.184-1.686 1.13-1.046 2.773-2.06 4.288-1.238 1.536.843 2.805 2.263 3.882 3.629.534.661 1.013 1.365 1.483 2.08.266.395.533.8.789 1.206l.384.608.192.3c.117.234.139.202.032-.097l.17-.63c.086-.095.043-.063-.117.097l-.309.277-.47.416-1.087.971c-.725.64-1.45 1.291-2.176 1.932l-1.088.96c-.17.15-.576.63-.736.662-.203.032-.523-.16-.704-.246a5.611 5.611 0 01-.96-.608c-1.322-1.035-2.474-2.4-3.551-3.681a43.002 43.002 0 01-1.622-2.06 14.439 14.439 0 00-.81-1.003c-.022-.032-.235-.31-.128-.16-.086-.128-.075-.032-.096-.181l-1.248 1.248c.202 0 .405-.032.597-.085.085-.022.384-.075.139-.075l-.63-.17c.694.33 1.334 1.056 1.899 1.568.661.598 1.29 1.216 1.92 1.846 1.248 1.238 2.453 2.54 3.807 3.65.747.618 1.835 1.237 2.806.715 1.098-.588.896-1.836.437-2.775-.373-.758-.97-1.398-1.568-1.985-.683-.661-1.387-1.312-2.07-1.974l-2.431-2.305-1.141-1.088-.608-.577-.224-.213-.224-.214c-.139-.138-.117-.085.075.171v.651l.031-.096-.32.555-.5.235c-.086-.01-.086 0 .01.01.128.043.256.086.384.107a2.9 2.9 0 01.501.203c.406.203.79.448 1.141.736.832.672 1.547 1.473 2.283 2.252.853.896 1.75 1.76 2.688 2.572.981.853 2.389 1.771 3.658.832.683-.512.81-1.291.256-1.964-1.259-1.536-2.794-2.827-4.266-4.161l-4.8-4.343.192 1.515s-.064.064-.075.053c-.074-.042.214.01.086-.01.256.042.501.117.736.224.672.266 1.333.555 2.005.821l3.946 1.622c.502.203 1.152-.138 1.408-.576.277-.49.192-1.11-.192-1.515-1.493-1.644-3.54-2.508-5.546-3.33-.565-.234-1.27.203-1.472.726-.224.555-.043 1.26.512 1.558a16.253 16.253 0 015.077 4.332l.885-2.134c-1.109 0-2.144-.352-3.189-.704-1.322-.448-2.261 1.686-.96 2.284a80.725 80.725 0 005.141 2.187c.576.224 1.259-.192 1.472-.725.245-.598.021-1.206-.512-1.558a64.453 64.453 0 01-4.949-3.725l-1.514 1.964a9.415 9.415 0 012.474 1.483c.715.619 1.27 1.366 1.952 2.017.693.672 1.504 1.174 2.464 1.334.554.085-.128-.246-.043-.288-.021.15-.053.288-.107.427-.138.266-.362.49-.629.63l1.835.746c-.299-.854-.384-1.75-.779-2.56a3.203 3.203 0 00-1.856-1.644c-1.333-.46-2.229 1.643-.96 2.283-.053-.085-.106-.181-.16-.267l1.206-1.579a9.351 9.351 0 01-2.528-.576c-.63-.235-1.366.256-1.536.875-.192.694.234 1.302.874 1.537a11.27 11.27 0 003.19.661c.789.064 1.45-.853 1.205-1.58-.182-.533-.48-.97-.992-1.226l-.96 2.283a.85.85 0 01.181.16c.107.15.181.31.235.48.192.598.267 1.228.48 1.815.267.768 1.088 1.163 1.834.747 1.142-.64 1.974-1.89 1.984-3.212 0-.78-.352-1.516-1.045-1.89-.48-.255-1.12-.234-1.515-.458-.842-.48-1.471-1.494-2.207-2.177a10.824 10.824 0 00-3.307-2.166c-.576-.245-1.205-.224-1.61.32-.342.459-.384 1.238.096 1.643a72.79 72.79 0 005.45 4.109l.96-2.284a70.737 70.737 0 01-4.544-1.931l-.96 2.283c1.248.416 2.517.8 3.85.8.502 0 .95-.309 1.142-.768.203-.512.064-.95-.256-1.366a17.93 17.93 0 00-5.59-4.727l-.959 2.284c1.61.661 3.253 1.376 4.448 2.689l1.216-2.092-4.917-2.027c-.768-.32-1.579-.747-2.443-.736-.885.01-1.706.426-2.165 1.195-.277.459-.213 1.152.192 1.515l4.8 4.343c1.471 1.334 2.997 2.625 4.266 4.162l.256-1.964c-.235.171-.021-.032.075.043.053.043-.043.021-.054 0-.032-.053-.224-.128-.288-.17a13.348 13.348 0 01-1.098-.961 34.997 34.997 0 01-2.005-1.974c-1.11-1.174-2.23-2.412-3.659-3.212-.704-.395-1.61-.78-2.432-.769-1.194.022-2.016 1.249-1.344 2.327.256.405.694.736 1.046 1.067l1.14 1.088 2.209 2.092 2.431 2.305c.363.33.704.672 1.014 1.046.106.138.202.288.288.437.042.075.074.15.117.224.181.278-.213.288.139-.277l.448-.448c.341-.203.501.053.096-.246a7.323 7.323 0 01-.534-.47c-.405-.362-.789-.736-1.183-1.11-.822-.789-1.622-1.61-2.443-2.41a48.991 48.991 0 00-2.432-2.274 15.133 15.133 0 00-1.376-1.099 1.573 1.573 0 00-1.44-.192c-.042.021-.288.075-.117.064-.618.021-1.333.555-1.248 1.248.107.886.427 1.495 1.003 2.167.522.587.96 1.248 1.45 1.867a43.633 43.633 0 003.424 3.863c1.173 1.163 2.613 2.358 4.33 2.519 1.067.095 1.77-.577 2.507-1.228.672-.597 1.355-1.195 2.026-1.792a352.64 352.64 0 002.102-1.868c.64-.576 1.674-1.195 1.823-2.102.15-.875-.575-1.697-1.034-2.401a51.31 51.31 0 00-1.301-1.942c-.939-1.323-1.942-2.615-3.115-3.735-1.237-1.185-2.698-2.39-4.447-2.604-1.974-.245-3.84.918-5.28 2.166-.597.513-1.035 1.185-1.43 1.857-.351.608-.64 1.174-1.183 1.537l1.258 2.155c1.355-1.045 2.677-2.134 3.883-3.361.576-.587 1.077-1.27 1.674-1.835-.15.138.16-.096.214-.128.053-.032.309-.15.298-.15.31-.128.63-.224.95-.33.042-.011.32-.065.34-.118a.618.618 0 01-.34 0c.127.043.117.032-.022-.01.278.245.235.138.523.394.416.384.79.8 1.194 1.195.459.438.928.886 1.366 1.345.096.128.202.245.32.363.085.064-.16-.256-.054-.064.01.02.022.032.032.053a1.019 1.019 0 01-.096-.79l.288-.501c1.035-.096 1.376-.192 1.003-.288-.096-.032-.032-.011.192.085a.497.497 0 01-.107-.053c-.106-.075-.213-.128-.32-.192-.138-.086-.277-.192-.405-.289l-.192-.138-.139-.107.043.032a18.406 18.406 0 01-.992-.822c-.48-.416-.843-.875-1.493-.96l.48.128a5.751 5.751 0 01-1.003-.758c-.47-.395-1.323.011-1.088.62z" fill="#7A82CE"/><path d="M98.063 40.102c-.738.535-1.337 1.317-1.99 1.96-.716.707-1.433 1.393-2.214 2.036a36.193 36.193 0 01-4.899 3.332c-.706.407-.085 1.414.631 1.071a21.165 21.165 0 005.092-3.46 22.01 22.01 0 002.096-2.143c.61-.729 1.359-1.586 1.669-2.496.085-.215-.193-.44-.385-.3zm-9.456-11.25c-1.08-.096-2.086.418-2.984.954a26.237 26.237 0 00-2.653 1.8c-1.711 1.317-2.973 2.87-3.594 4.97-.17.569.717.965.974.408.77-1.66 2.085-3.118 3.412-4.36a21.689 21.689 0 012.192-1.768c.856-.622 1.69-1.286 2.739-1.522.267-.053.17-.45-.086-.482zm-.685 5.668h.011l-.128.021h.032l-.14-.021.022.01a.583.583 0 00.332 0l-.16.022h.042l-.16-.022.032.011-.15-.064c.022.01.032.021.054.032.15.086.331.107.492.064.16-.043.3-.15.385-.3a.664.664 0 00.064-.492.634.634 0 00-.3-.386.672.672 0 00-.353-.097c-.064 0-.117.011-.181.022l-.022.01a.566.566 0 00-.182.086.563.563 0 00-.15.129.705.705 0 00-.181.428c0 .065 0 .118.021.172a.822.822 0 00.15.268c.128.107.31.16.47.107zm1.434 1.424l-.021-.128.021-.129.053-.118v.011l.086-.107.107-.086h-.01l.128-.053a.688.688 0 00-.268.16l.118-.085h-.01l.138-.054h-.01l.15-.021h-.011l.15.021h-.011l.139.054c-.01 0-.01-.011-.022-.011l.118.096-.01-.01.096.118s-.011-.011-.011-.022l.064.14v-.011l.022.16v-.01a.612.612 0 00-.62-.611c-.054 0-.097.01-.15.022a.626.626 0 00-.364.278.621.621 0 000 .61.72.72 0 00.385.3.62.62 0 00.342 0 .613.613 0 00.289-.17.61.61 0 00.171-.504.545.545 0 00-.278-.418.514.514 0 00-.353-.064.52.52 0 00-.3.139.385.385 0 00-.075.107.475.475 0 00-.042.364l-.011.032zm1.604 1.683a.517.517 0 00.16.236l-.074-.568c0 .011-.01.022-.01.022l.074-.097-.01.011.106-.075a.735.735 0 00-.203.203l.086-.107c-.01.011-.01.022-.022.022l.107-.086a.081.081 0 01-.043.021l.129-.053-.032.01.139-.02a.593.593 0 00-.3.074c-.042.022-.085.065-.128.097l.107-.086-.01.01.117-.053h-.01a.677.677 0 00-.258.171.45.45 0 00-.106.3c0 .097.032.193.074.28.065.106.16.192.268.235a.614.614 0 00.652-.14.675.675 0 00.204-.439.55.55 0 00-.279-.482.463.463 0 00-.47 0c-.032.022-.075.054-.107.075a.42.42 0 00-.16.44zm2 2.378a.6.6 0 00.428-.182.609.609 0 000-.857.603.603 0 00-.845-.01l-.01.01a.606.606 0 00-.01.846l.01.011a.6.6 0 00.428.182zm-6.813-3.985h.01l-.127.021h.032l-.14-.021.022.01a.581.581 0 00.331 0l-.16.022h.043l-.16-.021.031.01-.15-.064c.022.01.033.022.054.032a.66.66 0 00.492.065c.16-.043.3-.15.385-.3a.664.664 0 00.064-.493.634.634 0 00-.299-.386.672.672 0 00-.353-.096c-.064 0-.118.01-.182.021l-.021.01c-.064.022-.129.044-.182.086a.564.564 0 00-.15.129.705.705 0 00-.182.428c0 .065 0 .118.022.172a.823.823 0 00.15.268c.128.118.31.16.47.107zm1.433 1.436l-.021-.129.021-.128.054-.118v.01l.085-.107.107-.085h-.01l.128-.054a.687.687 0 00-.267.16l.117-.085h-.01l.139-.054h-.011l.15-.021h-.011l.15.021h-.01l.138.054c-.01 0-.01-.01-.021-.01l.117.096-.01-.011.096.118s-.01-.01-.01-.022l.063.14v-.011l.022.16v-.01a.612.612 0 00-.62-.61c-.054 0-.097.01-.15.02a.627.627 0 00-.364.28.621.621 0 000 .61.72.72 0 00.385.3.618.618 0 00.342 0 .613.613 0 00.29-.172.61.61 0 00.17-.503.545.545 0 00-.278-.418.514.514 0 00-.353-.064.52.52 0 00-.3.14.385.385 0 00-.074.106.475.475 0 00-.043.364l-.01.033zm1.605 1.671a.517.517 0 00.16.236l-.074-.568c0 .01-.011.021-.011.021l.075-.096-.01.01.106-.074a.735.735 0 00-.203.203l.085-.107c-.01.01-.01.021-.021.021l.107-.085a.08.08 0 01-.043.021l.129-.053-.033.01.14-.021a.592.592 0 00-.3.075c-.043.021-.086.064-.128.096l.107-.086-.011.011.117-.053h-.01a.678.678 0 00-.257.171.45.45 0 00-.107.3c0 .096.032.193.075.279.064.107.16.192.267.235a.614.614 0 00.653-.139.675.675 0 00.203-.44.55.55 0 00-.278-.481.463.463 0 00-.47 0c-.033.021-.076.053-.108.075-.139.117-.203.278-.16.439zm2 2.389a.6.6 0 00.428-.182.605.605 0 00.01-.847l-.01-.01a.606.606 0 00-.856.857.599.599 0 00.428.182zm-6.845-3.953h.01l-.128.021h.032l-.14-.02.022.01a.58.58 0 00.332 0l-.16.021h.042l-.16-.021.032.01-.15-.064c.021.011.032.022.053.032a.633.633 0 00.877-.236.664.664 0 00.065-.492.633.633 0 00-.3-.386.672.672 0 00-.353-.096c-.064 0-.118.01-.182.021l-.021.01c-.064.022-.128.044-.182.087a.564.564 0 00-.15.128.706.706 0 00-.181.429c0 .053 0 .118.02.171a.825.825 0 00.15.268c.118.096.3.14.471.107zm1.422 1.425l-.021-.129.021-.128.053-.118v.01l.086-.106.107-.086h-.01l.128-.054a.689.689 0 00-.268.16l.118-.085h-.01l.138-.053h-.01l.15-.022h-.011l.15.022h-.011l.139.053c-.01 0-.01-.01-.022-.01l.118.096-.01-.01.096.117s-.011-.01-.011-.021l.064.139v-.01l.022.16v-.01a.612.612 0 00-.62-.611c-.054 0-.097.01-.15.02a.627.627 0 00-.364.28.621.621 0 000 .61.72.72 0 00.385.3.618.618 0 00.342 0 .613.613 0 00.289-.171.61.61 0 00.171-.504.545.545 0 00-.278-.418.513.513 0 00-.353-.064.52.52 0 00-.3.14.385.385 0 00-.075.107.475.475 0 00-.042.364l-.011.032zm1.604 1.672a.517.517 0 00.16.235l-.074-.568c0 .01-.01.021-.01.021l.074-.096-.01.01.106-.074a.737.737 0 00-.203.203l.086-.107c-.01.01-.01.022-.022.022l.107-.086a.08.08 0 01-.042.021l.128-.053-.032.01.139-.021a.592.592 0 00-.3.075c-.042.021-.085.064-.128.096l.107-.085-.01.01.117-.053h-.01a.679.679 0 00-.258.171.45.45 0 00-.106.3c0 .097.032.193.074.279a.57.57 0 00.268.236.614.614 0 00.652-.14.675.675 0 00.204-.439.55.55 0 00-.278-.482.463.463 0 00-.471 0c-.032.021-.075.053-.107.075a.456.456 0 00-.16.44zm2.001 2.388c.16 0 .31-.064.427-.182a.605.605 0 00.011-.846l-.01-.011a.606.606 0 00-.856.857.618.618 0 00.428.182zM27.51 7.212c-.198 1.145-.198 2.361-.3 3.517a280.667 280.667 0 01-.342 3.728 116.2 116.2 0 01-.428 3.678l-.238 1.748c-.08.563-.293 1.246-.159 1.81.088.391.46.391.635.1.261-.443.261-1.196.333-1.739.08-.583.15-1.166.214-1.758.143-1.216.27-2.432.38-3.648a89.43 89.43 0 00.262-3.638c.064-1.216.198-2.522.095-3.738-.031-.292-.388-.402-.452-.06zm4.987-1.057c-.322 1.866-.384 3.774-.631 5.65a82.843 82.843 0 01-.433 2.99c-.148.922-.396 1.855-.433 2.788-.012.477.841.583.977.117.272-.901.31-1.866.408-2.788.112-.965.21-1.93.297-2.895.16-1.908.408-3.89.285-5.798 0-.233-.433-.318-.47-.064zm4.963 1.032c-.167.757-.226 1.544-.324 2.321-.099.747-.216 1.483-.324 2.23-.236 1.514-.59 3.017-.805 4.53-.099.717.932 1.06 1.09.313.314-1.503.431-3.098.589-4.621.157-1.524.383-3.148.294-4.692-.02-.292-.451-.383-.52-.08zm6.472 4.173c0 .288-.009.575-.009.862a134.484 134.484 0 00-.008 3.162c.008.839-.97.804-.913 0 .075-.932.132-1.874.19-2.805l.074-1.334c.074-1.322.082-2.69.23-4 .05-.402.469-.264.485.092.058 1.322-.033 2.69-.05 4.023z" fill="#424575"/><path fill-rule="evenodd" clip-rule="evenodd" d="M61.708 10.12c-2.598.17-3.254 4.849-.359 5.177.688.076 1.398.076 1.86-.507.517-.658.915-1.337.915-2.19 0-.7-.108-1.401-.602-1.93-.42-.453-1.033-.755-1.657-.658a.219.219 0 00-.157.108zm-.026.251c.026.087.087.16.183.18l.065.012c.449.081.865.157 1.194.517.387.42.43.982.398 1.52-.033.616-.248 1.101-.613 1.597-.248.345-.42.464-.84.507a3.373 3.373 0 01-.806-.022c-2.382-.441-1.523-3.87.419-4.31zm5.375 3.535c-.106.818-.212 1.642-.406 2.448-.032.076-.096.13-.172.13a.189.189 0 01-.183-.184c.009-.72.09-1.44.172-2.16l.065-.59c.045-.424.12-.845.194-1.267.056-.319.113-.638.157-.96-.377.33-.756.66-1.147.965-.323.248-.774-.173-.462-.464a7.321 7.321 0 011.763-1.208.218.218 0 01.323.248 17.056 17.056 0 00-.158 1.55c-.03.412-.058.821-.11 1.222l-.036.27z" fill="#8FDD6F"/></svg>