<svg xmlns="http://www.w3.org/2000/svg" viewBox="0 0 465.53 378.18"><defs><style>.cls-4{fill:#29235c}</style></defs><g id="Layer_2" data-name="Layer 2"><g id="Layer_1-2" data-name="Layer 1"><rect x="82.54" y="24.8" width="70.73" height="311.39" rx="33.84" ry="33.84" transform="rotate(.07 122.892 188.183)" fill="#424575"/><rect x="191.99" y="180.64" width="70.73" height="155.7" rx="33.84" ry="33.84" transform="translate(.32 -.28)" fill="#fa476f"/><rect x="301.02" y="76.93" width="70.73" height="259.54" rx="33.84" ry="33.84" transform="rotate(.07 343.905 212.603)" fill="#3ecadd"/><path class="cls-4" d="M23.87.68a510.88 510.88 0 00-2.43 73.51c.79 24.08.43 48.09-.17 72.18-1.21 48.78-.82 97.58-.78 146.37 0 27.33.25 54.65.24 82 0 4.62 7.16 4.62 7.17 0q.14-72.81-.24-145.63c-.12-24.33-.23-48.65.23-73s1.63-48.83-.09-73.11C25.87 55.63 24.49 28.07 25.28.68c0-.92-1.31-.88-1.41 0z"/><path class="cls-4" d="M465.38 361.07c-13.58-3.89-29.27-2-43.31-2.72-15.06-.77-30.12-.87-45.19-.79-30.69.16-61.3.14-92-.44-15-.28-30.07-.43-45.11-.31-15.3.13-30.67 1.25-46 .57-14.95-.66-29.92-1.89-44.88-2.19-14.73-.3-29.51.12-44.25.21-33.84.22-67.56 1.9-101.37 1.83-4.43 0-4.44 6.89 0 6.89 30 0 59.79-1.57 89.76-1.85 15.11-.14 30.23-.2 45.34-.34s29.89.77 44.85 1.42c30.22 1.31 60.54-.68 90.81-.41s60.62.69 91 .25c17-.25 34.08-.36 51.12 0 8.21.18 16.38.42 24.59.35s16.71.16 24.6-2.08a.21.21 0 000-.41z"/></g></g></svg>