<svg xmlns="http://www.w3.org/2000/svg" viewBox="0 0 419.92 618.28"><defs><style>.cls-3{fill:#fff}.cls-4{fill:#dcefff}.cls-5{fill:#424575}</style></defs><g id="Layer_2" data-name="Layer 2"><g id="Layer_1-2" data-name="Layer 1"><rect x="23.17" y="34.5" width="375.22" height="555.73" rx="187.61" ry="187.61" fill="#2fd1b9"/><path d="M373.12 388.14c-2.25 6.44-9.24 12.06-14.77 15.7-6.06 4-12.71 7-19.24 10.06a377.32 377.32 0 00-45.93 26c-13.87 9.14-29 18.58-40 31.23a85.25 85.25 0 00-19 38.46 87 87 0 00-1.46 10.15 153.28 153.28 0 00-15.58-17.27c-15-14.28-32.61-24.69-51.42-33.14a387.41 387.41 0 00-63.53-22.27c-17.43-4.42-36.35-9.25-50.38-21.56-15.71-13.79-21.33-32.67-27.19-51.78a1.12 1.12 0 00-2.2.3c-1.51 18.37 0 38.12 10.51 53.88 11 16.59 29.95 23.86 48.46 28.79 21.2 5.65 42.14 11.13 62.55 19.35 19.34 7.8 39.09 17 55.33 30.25A148.13 148.13 0 01232.39 545a35 35 0 00-3.55 5.23 60.93 60.93 0 00-5.72 12.67 61.82 61.82 0 00-2.46 13.42c-.41 4.77-.63 10.22 2.84 13.88 2.67 2.82 6.78 1.69 8.79-1.13 2.35-3.3 1.66-8.2 1.77-12.09a112.86 112.86 0 011-11.81c.49-3.61 1.11-7.25 1.95-10.79l.06-.26c.64 1.79 1.33 3.57 2.1 5.33 3.57 8.13 17.54 2.32 14.45-6.09-9-24.52-5.5-53.6 12.32-73.45 10.82-12.06 25.21-21.47 38.46-30.63 14.07-9.72 28.41-19.05 42.76-28.35 6.32-4.1 12.69-8.33 18.07-13.64 5.59-5.52 7.94-11.13 9.56-18.67a.87.87 0 00-1.67-.48zM37.3 182.12c14.14 1.4 29.31-1.11 43.24-3.46a269.53 269.53 0 0041.06-10.3 265.08 265.08 0 0076.21-39.94 161.3 161.3 0 0018.24-16.23 80.32 80.32 0 008-9.09c.54-.76 1-1.55 1.53-2.35 2.62 4.68 8 8.62 11.93 11.11 7.62 4.89 16.37 8 24.83 11.14a144.46 144.46 0 0027.59 7.11 113.75 113.75 0 0015.2 1.35c5.3.1 10.71.1 14.72-3.86 3.19-3.15 2-7.7-1.3-10.09-3.88-2.84-8.89-2.17-13.42-2.35a108.3 108.3 0 01-11.53-1.09 211.16 211.16 0 01-25.65-5.93c-7.73-2.14-15.55-4.43-23.09-7.18a49.06 49.06 0 01-9.53-4.36 53.37 53.37 0 00-5.33-3.41l.27-.41c1.54-2.28-1.6-5.61-3.9-3.9a79.46 79.46 0 01-8.23 5 89.93 89.93 0 00-8.49 6c-5.49 4-10.92 8.07-16.55 11.89-11.37 7.7-22.68 15.31-34.79 21.83A268.46 268.46 0 0182 160.74c-7 1.35-14 2.42-21.1 3.14-7.87.8-15.8.83-23.64 1.78-10.42 1.27-10.65 15.4.04 16.46zm121.8 96.34c-9.77 2.68-22.23 5.67-32.14 3.3a49.8 49.8 0 01-14.62-6.37c-5-3.16-8.14-7.67-12.47-11.52a.61.61 0 00-1 .59c2.47 11.28 15.29 20.26 25.71 23.21 11.6 3.28 26.3 2.64 37.85-.6 27.37-7.69 36.12-40.51 31.68-65.87 13.05-4.59 27.57-1.84 38.53 6.6 4.17 3.21 8.34-3.94 4.15-7.09-14.16-10.67-32.94-12.31-49-5.22-1.58.7-2.14 2.83-1.78 4.36 5.3 22.65-1.63 51.68-26.91 58.61zm155.99-42.69c1.28 17.55-9.47 33.15-24.52 40.64-16.44 8.19-41.36 7.88-52.9-8.83-.44-.64-1.64-.28-1.34.58 8.22 22.87 36.11 26.85 55.78 18.68 19.93-8.27 35.2-28.33 33.93-51.07-.39-7.24-11.47-7.22-10.95 0zM184 347.48a84.62 84.62 0 0030.66 4.52c18.73-.77 46.36-8 52.12-28.63 1.92-6.89-8.45-11.66-11.81-5-7.57 15-27.07 20.54-42.72 21.55a84.1 84.1 0 01-26.17-2.23c-8.5-2.16-16.19-6.39-24.53-8.87-1.59-.47-3.33 1.51-2.28 3 5.73 8.01 15.67 12.56 24.73 15.66z" fill="#2ba3af"/><circle class="cls-3" cx="141.96" cy="239.74" r="42.38"/><path class="cls-4" d="M159.15 200.09l-42.94 72.79a42.37 42.37 0 1042.94-72.79z"/><path class="cls-3" d="M315.8 242.75a42.38 42.38 0 11-84.75 0c0-23.4 21.28-40.84 44.69-40.84s40.06 17.44 40.06 40.84z"/><path class="cls-4" d="M292.16 204l-42.94 72.79A42.37 42.37 0 10292.16 204z"/><path class="cls-5" d="M274.51 247.9a2.19 2.19 0 01.38-.21l-1.86.78a.87.87 0 01.22-.05l-2.09.28h.1l-2.1-.28a.56.56 0 01.18 0l-1.91-.81a.65.65 0 01.16.1L266 246.5a.88.88 0 01.14.16l-1.32-1.66a.69.69 0 01.11.2l-.83-2a1.78 1.78 0 01.05.24l-.3-2.24c.14 1.18.28 2.37.48 3.54l-.33-2.34a6 6 0 010 1.52l.33-2.45a4.75 4.75 0 01-.31 1.09l1-2.26a4.16 4.16 0 01-.27.47 9.63 9.63 0 00-1 7.37 9.2 9.2 0 005.54 6.2 9.09 9.09 0 007.37 0c2.53-1.07 5-3.34 5.54-6.2a13.52 13.52 0 00-.19-7c-1-2.78-2.39-5.4-5-7a10.06 10.06 0 00-7.5-1.14c-2.83.76-5.65 3.32-6.11 6.34a9.45 9.45 0 000 4 7.52 7.52 0 002.72 3.94 7.72 7.72 0 008.42.59zm-131-2.36a2.19 2.19 0 01.38-.21l-1.86.78a.87.87 0 01.22-.05l-2.09.28h.1l-2.1-.28a.56.56 0 01.18 0l-1.91-.81a.65.65 0 01.16.1l-1.59-1.21a.88.88 0 01.14.16l-1.28-1.65a.69.69 0 01.11.2l-.83-2a1.78 1.78 0 01.05.24l-.3-2.24c.14 1.18.28 2.37.48 3.54L133 240a6 6 0 010 1.52l.33-2.45a4.75 4.75 0 01-.31 1.09l1-2.26a4.16 4.16 0 01-.27.47 9.63 9.63 0 00-1 7.37 9.2 9.2 0 005.54 6.2 9.09 9.09 0 007.37 0c2.53-1.07 5-3.34 5.54-6.2a13.52 13.52 0 00-.19-7c-1-2.78-2.39-5.4-5-7a10.06 10.06 0 00-7.5-1.14c-2.83.76-5.65 3.32-6.11 6.34a9.45 9.45 0 000 4 7.52 7.52 0 002.72 3.94 7.72 7.72 0 008.42.59z"/><path class="cls-5" d="M139.33 195.91c-18.17 3.74-34.71 15.93-40.56 34-6 18.59.23 39.19 16.86 49.92a45.85 45.85 0 0052.09-1.95A51 51 0 00187 227.19c-4.59-22.25-26-38.3-48.75-34.11-6 1.1-3.5 10.6 2.53 9.19 16.55-3.85 32.71 7.06 37.47 22.89s-.57 32.73-12.71 43.59c-11.26 10.07-27.22 13.07-41.14 6.9-15.24-6.75-22.93-22.9-20.82-39.16 2.49-19.23 18.15-33.87 36-39.47a.58.58 0 00-.31-1.11z"/><path class="cls-5" d="M107.69 218.52c3.09.11 5.55-3.74 7.52-5.72a46.1 46.1 0 0110.06-7.8 42.24 42.24 0 0124.84-5.45c3.89.33 3.87-5.73 0-6.07a46.46 46.46 0 00-27.34 6 45.05 45.05 0 00-10.37 8.7c-2.1 2.33-6.4 6.57-5.2 10a.52.52 0 00.49.37zm143.99-8.59c2.54 1.33 5.65-.68 8.09-1.62a46.45 46.45 0 0112.51-3.13 40.49 40.49 0 0123.61 4.8c3.42 1.89 6.48-3.35 3.06-5.24a42.13 42.13 0 00-39.34-2c-2.78 1.22-8 3.19-8.17 6.72a.5.5 0 00.25.44zM181 220.89a1.53 1.53 0 00-.79 1.36 1.83 1.83 0 001.34 1.76c3.89.83 6.62-4.16 9.44-6.24a25.4 25.4 0 0115.57-4.77c4.92 0 11.47-.13 16 1.89s7.5 6.62 10.18 10.54l4-6.94-2.6.33c-6.6.84-5.47 10 1.23 9.08l2.59-.35c2.85-.39 4.3-4.55 2.75-6.77-3.46-5-7.18-10.19-12.57-13.2-5.71-3.19-13.05-3.37-19.44-3.11-6.62.26-13.2 1.69-18.73 5.48a28.76 28.76 0 00-6.61 6.13 18.17 18.17 0 00-2.4 3.53 4.73 4.73 0 00-.48 1.53q-.67 1.43.92-.16a.29.29 0 00-.4-.1z"/><path class="cls-5" d="M288.28 202.6c-18.09-4-38.31.54-50.31 15.37-11.58 14.31-13.34 34.46-2.38 49.67a44.49 44.49 0 0046.36 17.43c18.43-4.4 33.34-19.73 36.39-38.54 3.32-20.43-8.7-41.85-29.38-46.9-6-1.47-8.51 8-2.53 9.19 15.09 2.92 25.31 16.67 24.59 31.87-.73 15.45-11.42 29.18-25.78 34.55s-30.13 2.29-40.66-9-11.45-27.41-4.2-40.6c9.28-16.91 29.31-24 47.75-21.92.65.07.78-1 .15-1.13zm-82-144.95c-.76 4.89 3 10.58 5.34 14.69a89.85 89.85 0 009.92 14.21 101 101 0 0025.75 21.54 105.22 105.22 0 0073.94 12c7.59-1.58 4.33-12.94-3.19-11.56-22.37 4.12-45.74.78-65.68-10.32a101.64 101.64 0 01-24-18.55 119.61 119.61 0 01-10.14-11.91c-2.59-3.54-4.85-9.2-8.69-11.45-1.13-.66-3.06-.12-3.29 1.34z"/><path class="cls-5" d="M224.62 80.28a183.11 183.11 0 01-67.1 49.23c-29.11 12.35-60.65 18-92 20.72-19 1.66-38.17 2.38-57.26 3.38-8.39.44-8.51 13.37 0 13.14 64.49-1.72 134.5-6.32 188-46.54 13.28-10 25-21.65 33.5-36 1.86-3.13-2.66-6.86-5.16-4z"/><path class="cls-5" d="M215.13 2.24C205.49-.66 194.33 0 184.36.32a223 223 0 00-30.62 3.24A204.83 204.83 0 0093.91 23.8 186.19 186.19 0 0018.45 98a183.46 183.46 0 00-12.93 29.27c-3.73 10.91-8.09 25-3.65 36.28 1.94 4.92 8.89 4.27 9.29-1.26.38-5.25.24-10.55 1.1-15.77a110.94 110.94 0 013.82-15.06 165.89 165.89 0 0110-24.76 176.14 176.14 0 0129.43-42c25.39-26.8 58.41-44.34 94.32-52.41a261.21 261.21 0 0132.5-5.08c10.8-1 22.19-.32 32.79-2.54a1.27 1.27 0 000-2.44zm-55.87 321.89c5.73 8 15.68 12.54 24.75 15.63a84.87 84.87 0 0030.64 4.53c18.71-.77 46.33-8 52.09-28.6 1.91-6.85-8.4-11.59-11.75-5-7.58 15-27.09 20.55-42.75 21.57a83.79 83.79 0 01-26.17-2.26c-8.5-2.17-16.19-6.4-24.52-8.88-1.59-.47-3.33 1.51-2.28 3z"/><path class="cls-4" d="M245.93 559.64c-7.39 1.12-11.42 9.39-12.28 16.81-.93 8.08.54 16.63 5.23 23.27 6.49 9.18 18.44 13.49 29.65 12.66 9-.67 18.42-5 22.31-13.14 3.15-6.61 2.17-14.42.31-21.49-1.33-5-3.19-10.16-7-13.73a24.39 24.39 0 00-9.62-5.15 47.37 47.37 0 00-36.93 4"/><path class="cls-5" d="M246.58 557.31c-6.19-.89-11.66 3.63-14.54 8.86-3.47 6.3-4.28 14.23-3.41 21.26A34.78 34.78 0 00258 617.68c13.51 2.25 30.25-1.71 37.17-14.7 4-7.46 3.55-16.1 1.78-24.13-1.68-7.63-4.56-15.36-10.94-20.28-14.16-10.91-36.29-8.82-50.69.22-5.14 3.23-.67 10.58 4.7 8a46.81 46.81 0 0133.72-2.55 16 16 0 0110.91 10.24c2 5.31 3.6 11.64 2.8 17.34-1.48 10.44-12.2 14.83-21.68 14.72-10.1-.12-19.95-4.82-24.54-14.12a30.71 30.71 0 01-2.49-17.84c.94-5.8 3.44-9.91 8.46-12.9 1.62-1 1.59-4.11-.58-4.42z"/><path class="cls-3" d="M260.57 572.75a10.35 10.35 0 10.75 0"/><path class="cls-5" d="M260.57 571.09a12.15 12.15 0 00-12.24 12.66c.34 6.86 6.8 12.59 13.61 12.34a13.26 13.26 0 0012.35-12.81c.05-7.08-6.14-12.56-13-12.74-2.81-.07-2.76 4.14 0 4.33 4.05.28 7.91 3.62 8 7.87 0 4.09-3.76 8-7.88 7.95a7.93 7.93 0 01-7.51-7.48c0-4.12 3.33-7.74 7.11-8.86a1.67 1.67 0 00-.44-3.26zM11.29 262.45c-6.75 3.69-8.29 12.29-4.78 18.81 2.06 3.87 7.37.47 5.74-3.35-1.78-4.17-.59-9.07 1.77-12.74 1.11-1.74-1-3.63-2.72-2.72zm396.99-19.98c.8 3.31 2.57 6.26 3.27 9.64a44.55 44.55 0 01.6 10.58c-.17 5 7 4.7 7.58 0 .88-7.14-1.25-17.94-7.16-22.71-1.93-1.56-4.92-.16-4.28 2.49zM18 292.83c-3.41 15.61-1.63 32.54.58 48.19a451.16 451.16 0 008.59 46.65c3.42 13.62 9.25 26.41 19.61 36.15 10.11 9.51 22.63 15.79 35.58 20.46 15 5.42 30.71 8.85 45.73 14.33 8.41 3.06 16.76 6.3 25.14 9.45 16.31 6.13 32.4 13.32 46.18 24.16 21.29 16.74 34.67 40.53 43.8 65.64 1.72 4.73 9.16 2.85 7.66-2.11-7-23.37-18.48-45.6-36-62.86-13.27-13.08-29.33-22.34-46.39-29.54-19-8-38.63-15.59-58.48-21-27.37-7.47-58.14-15.57-71.44-43.42-7.2-15.07-10-32.72-13.25-49-1.88-9.52-3.41-19.08-4.35-28.74-.91-9.38-.63-18.64-.54-28a1.23 1.23 0 00-2.41-.33z"/><path class="cls-5" d="M396.42 265.29c-1 7.05-1 14.31-1.16 21.43-.21 7.57-.56 15.14-1.19 22.69-1.23 14.63-3.4 29.25-7.81 43.29-7.79 24.81-22.33 47.21-45 60.75-11.83 7.08-24.48 12.94-36.63 19.47-10.45 5.61-21.31 10.5-31.52 16.57-18 10.7-32 25.42-38.71 45.49-7 21 1.14 44.34 9.5 63.65 1.61 3.72 8 1.06 6.6-2.78-6.49-17.79-14.67-37.37-8.81-56.47A72.59 72.59 0 01253 476.81c6.95-9.11 16.37-15.74 26.1-21.57 10-6 20.55-11.21 30.76-16.93 12.13-6.81 25-12.3 36.86-19.61 21.59-13.34 35.88-34.66 43.7-58.52 4.75-14.49 7.13-29.75 8.09-44.94.54-8.52.65-17.05.58-25.58-.07-8.08 0-16.38-1.36-24.36a.69.69 0 00-1.32 0z"/></g></g></svg>