<svg width="85" height="97" fill="none" xmlns="http://www.w3.org/2000/svg"><path fill-rule="evenodd" clip-rule="evenodd" d="M48.74 24.992c2.508-.288 4.778 1.488 5.07 3.966.291 2.478-1.506 4.72-4.015 5.008-2.509.288-4.779-1.487-5.07-3.965-.292-2.479 1.506-4.721 4.014-5.009z" fill="#908ED6"/><path fill-rule="evenodd" clip-rule="evenodd" d="M49.83 96.132c-10.841 0-19.63-8.335-19.63-18.618V54.017c0-10.282 8.789-18.617 19.63-18.617 10.843 0 19.632 8.335 19.632 18.617v23.497c0 10.283-8.79 18.618-19.631 18.618z" fill="#7A7AD3"/><path fill-rule="evenodd" clip-rule="evenodd" d="M49.83 91.954c-10.841 0-19.63-9.357-19.63-20.9V53.892c0-11.542 8.789-20.9 19.63-20.9 10.843 0 19.632 9.358 19.632 20.9v17.162c0 11.543-8.79 20.9-19.631 20.9z" fill="#908ED6"/><path fill-rule="evenodd" clip-rule="evenodd" d="M55.217 61.76c.04-.067.074-.166.104-.239l-.096.224.006-.009-.151.192.008-.008-.197.15.01-.005.2-.15.154-.196.099-.23.035-.256-.035-.257-.1-.23-.153-.195a.74.74 0 00-.317-.2.497.497 0 00-.249-.065.508.508 0 00-.262 0 .496.496 0 00-.248.066.494.494 0 00-.217.124.49.49 0 00-.177.172.479.479 0 00-.127.213.472.472 0 00-.067.244.717.717 0 00.018.384c.044.162.141.328.264.446.044.042.151.12.203.152.154.095.313.11.486.128a.948.948 0 00.81-.454zm-9.147 0c.04-.067.074-.166.104-.239l-.096.224.006-.009-.151.192.008-.008-.197.15.01-.005.2-.15.154-.196.099-.23.035-.256-.035-.257-.1-.23-.153-.195a.737.737 0 00-.317-.2.497.497 0 00-.249-.065.507.507 0 00-.261 0 .497.497 0 00-.249.066.495.495 0 00-.217.124.492.492 0 00-.177.172.482.482 0 00-.127.213.47.47 0 00-.067.244.716.716 0 00.018.384 1 1 0 00.265.446c.044.042.15.12.202.152.154.095.313.11.486.128a.948.948 0 00.81-.454zm-16.774 8.424c-1.085.005-2.187.207-3.27.283a35.754 35.754 0 01-3.315.09 32.449 32.449 0 01-3.37-.239c-1.076-.137-2.125-.386-3.21-.456-.746-.048-.74.84-.162 1.051 1.073.392 2.278.488 3.429.593a30.54 30.54 0 003.431.127c1.116-.024 2.235-.1 3.339-.243 1.09-.141 2.277-.311 3.274-.731.267-.113.128-.476-.146-.475zm19.76 17.159v.064c0 .17.079.348.206.468a.738.738 0 00.498.194c.182-.007.37-.064.498-.194a.668.668 0 00.206-.468v-.064a.664.664 0 00-.206-.469.739.739 0 00-.498-.194c-.182.008-.37.064-.498.194a.67.67 0 00-.206.469zm-.032-4.065v.064c0 .17.078.349.206.469a.738.738 0 00.497.194c.182-.008.371-.064.498-.194a.668.668 0 00.206-.469v-.064a.664.664 0 00-.206-.469.739.739 0 00-.498-.194c-.182.008-.37.064-.497.194a.67.67 0 00-.206.469zm19.371-25.801c.07 0 .098-.116.022-.116-.07 0-.098.116-.022.116zM61.64 45.523c.07 0 .098-.116.022-.116-.069 0-.098.116-.021.116z" fill="#424575"/><path fill-rule="evenodd" clip-rule="evenodd" d="M69.794 53.48c-.825-1.734-1.392-3.589-2.444-5.21-.368-.567-1.204-.234-1.127.41.2 1.653.816 3.231 1.08 4.877-3.886.927-7.87 1.584-11.854 1.898-2.166.171-4.338.28-6.51.35-2.113.068-4.121.001-6.148-.64a1.549 1.549 0 00-.3-.062 107.968 107.968 0 01-.074-3.434 157.2 157.2 0 01.007-2.38c.004-.357-.007-.731-.012-1.109a10.1 10.1 0 00.165-2.16h-.005c-.047-1.019-1.818-1.539-2.076-.387-.369 1.647-.556 3.275-1.134 4.878-.567 1.575-1.441 2.986-2.136 4.496-.91-.145-1.787-.443-2.546-.977a6.893 6.893 0 01-1.47-1.403l-.072-.09c.043-.462.057-.944.127-1.393.063-.407.28-.77.322-1.18.056-.545-.49-1.272-1.108-.907-1.028.609-1.211 1.861-1.716 2.834-.2.384-.172.72-.015.988.166 1.212 1.931 2.366 2.893 2.839 1.23.604 2.564.927 3.925.837.369.23.835.283 1.145-.026.925-.925 1.601-2.086 2.132-3.297.062.904.13 1.808.207 2.712-.362.723-.195 1.68.906 1.916 2.294.492 4.666.535 7.002.389 2.23-.14 4.464-.293 6.683-.561a93.54 93.54 0 0013.276-2.569c.346-.093.52-.3.565-.54.335-.254.524-.652.312-1.1z" fill="#7A7AD3"/><path fill-rule="evenodd" clip-rule="evenodd" d="M58.063 47.491c.855 1.416 1.518 2.934 2.452 4.303.382.561 1.354.184 1.188-.462-.398-1.55-1.374-2.97-2.302-4.298a37.396 37.396 0 00-3.054-3.8c-.511-.56-1.265.17-.825.704a30.01 30.01 0 012.54 3.553z" fill="#7A7AD3"/><path fill-rule="evenodd" clip-rule="evenodd" d="M68.407 52.13c-.715-1.698-1.262-3.476-2.182-5.085-.215-.376-.824-.149-.741.268.334 1.67.9 3.293 1.29 4.954a.724.724 0 00-.01.062c-3.854.943-7.8 1.628-11.758 1.979-2.15.19-4.306.303-6.462.393-2.222.093-4.389.07-6.53-.573a.981.981 0 00-.388-.039c-.062-1.29-.104-2.58-.121-3.87-.017-1.275-.09-2.597-.044-3.894.08-.544.128-1.09.133-1.632l-.02-.002c-.086-.66-1.207-1.022-1.35-.252-.303 1.639-.528 3.24-1.095 4.822-.55 1.53-1.371 2.9-2.105 4.338-.27-.024-.55-.012-.816-.041a6.884 6.884 0 01-1.8-.478 6.484 6.484 0 01-2.467-1.783.34.34 0 00.088-.32c.062-.347.115-.693.176-1.04.102-.58.334-1.07.582-1.596.122-.26-.22-.63-.482-.424-.935.737-1.047 1.808-1.47 2.831-.136.327-.066.538.093.656a7.026 7.026 0 002.993 2.872c.966.492 2.864 1.168 3.88.54l.013-.01a.563.563 0 00.197-.148c1.078-1.274 1.826-2.817 2.395-4.374.085 1.666.194 3.33.335 4.99.02.232.178.392.36.463.099.066.218.119.364.153 2.112.493 4.302.55 6.463.44 2.293-.117 4.593-.272 6.874-.533a90.82 90.82 0 0013.004-2.443c.276-.073.383-.257.377-.456.25-.135.384-.388.224-.768z" fill="#424575"/><path fill-rule="evenodd" clip-rule="evenodd" d="M57.843 46.605c.76 1.267 1.361 2.61 2.133 3.867.299.487.878.011.74-.426-.46-1.45-1.347-2.813-2.204-4.085a36.766 36.766 0 00-2.919-3.768c-.33-.374-.829.116-.539.468a32.545 32.545 0 012.79 3.944z" fill="#424575"/><path fill-rule="evenodd" clip-rule="evenodd" d="M48.805 66.793c-.775.803 1.304 1.53 1.9 1.623 1.274.199 2.643-.153 3.538-.992.45-.422-.127-1.137-.711-.822-.72.388-1.525.672-2.376.676a4.955 4.955 0 01-1.213-.13c-.362-.088-.582-.315-.918-.407-.072-.02-.17 0-.22.052z" fill="#7A7AD3"/><path fill-rule="evenodd" clip-rule="evenodd" d="M70.042 69.559c.555.205 1.253.059 1.825-.013a23.75 23.75 0 001.876-.305 24.698 24.698 0 003.674-1.061 27.805 27.805 0 003.449-1.566 25.51 25.51 0 001.604-.944c.551-.35 1.19-.708 1.636-1.185.485-.518-.123-1.303-.762-.97-.542.282-1.02.717-1.527 1.058-.514.347-1.042.675-1.58.984a25.53 25.53 0 01-3.3 1.599 29.347 29.347 0 01-3.462 1.132 31.97 31.97 0 01-1.818.416c-.543.108-1.195.136-1.672.43-.183.112-.131.355.057.425zm-21.237-3.322c-.775.803 1.304 1.53 1.9 1.623 1.274.199 2.643-.153 3.538-.992.45-.422-.127-1.137-.711-.822-.72.387-1.525.672-2.376.676a4.955 4.955 0 01-1.213-.13c-.362-.088-.582-.315-.918-.407-.072-.02-.17 0-.22.052z" fill="#424575"/><path d="M62.404 19.207l-34.607 5.831 4.378 21.987c.042-.278 15.928-3.15 15.928-3.15l18.345-2.343-4.044-22.325z" fill="#fff"/><ellipse rx="9.428" ry="9.61" transform="matrix(-1 0 0 1 61.368 17.293)" fill="#fff"/><path d="M18.371 21.227c0 5.067 4.479 9.175 10.003 9.175 5.525 0 10.913-4.108 10.913-9.175 0-5.068-4.479-10.01-10.003-10.01-5.525 0-10.913 4.942-10.913 10.01z" fill="#fff"/><path d="M30.19 16.22c0 6.91 8.836 12.513 16.369 12.513 7.534 0 14.55-5.602 14.55-12.513 0-6.91-9.745-14.18-17.278-14.18-7.534 0-13.64 7.27-13.64 14.18z" fill="#fff"/><path d="M66.195 38.35c-.703.873-1.845 1.001-2.797 1.162a16.7 16.7 0 01-3.016.229 33.861 33.861 0 00-6.335.42c-.5.086-.72-1.19-.2-1.229 2.086-.153 4.163-.273 6.22-.578.955-.145 1.932-.224 2.902-.298 1-.077 2.155-.317 3.21.23.009.003.016.014.02.027.002.012 0 .025-.006.032l.002.004zm-8.471-11.266c-1.959 3.994-6.371 6.279-10.904 6.865a17.03 17.03 0 01-6.626-.432c-2.269-.618-3.907-1.95-5.921-2.962-.493-.249-1.283.318-.793.763 3.538 3.213 8.917 4.604 13.927 3.795 4.415-.713 10.045-3.451 11.188-7.845.125-.48-.662-.608-.87-.184zm12.265-8.188c-1.018 3.841-3.664 5.841-6.474 6.149-1.389.153-2.812-.129-4.177-.828-1.454-.75-2.55-2.168-3.867-3.293-.322-.276-.787.238-.456.709 2.386 3.399 5.831 5.102 8.929 4.602 2.73-.44 6.115-2.817 6.6-7.104.053-.47-.447-.643-.555-.235zm-35.618 3.57c-1.017 3.842-3.663 5.841-6.474 6.15-1.388.152-2.811-.13-4.176-.828-1.454-.75-2.551-2.169-3.867-3.294-.322-.276-.787.238-.457.709 2.387 3.399 5.832 5.102 8.93 4.602 2.73-.44 6.114-2.817 6.6-7.104.053-.47-.447-.643-.555-.235zm-1.633-12.041c1.52-3.455 5.382-5.721 9.465-6.602a17.138 17.138 0 016.053-.23c2.103.309 3.68 1.258 5.577 1.913.465.16 1.146-.375.67-.697-3.426-2.329-8.409-2.998-12.91-1.892-3.968.975-8.907 3.722-9.659 7.433-.082.407.642.442.803.075zm-2.708 21.57c.3 1.1.36 2.273.585 3.393.23 1.135.503 2.261.774 3.387a103.025 103.025 0 001.323 5.057c.16.558.443 1.15.464 1.734.012.334-.59.568-.789.24-.295-.486-.379-1.096-.529-1.63a105.767 105.767 0 01-1.33-5.231c-.262-1.128-.53-2.255-.754-3.39-.217-1.118-.5-2.34-.299-3.506.041-.246.489-.275.55-.052l.006-.002z" fill="#F2F2F9"/><path d="M63.157 27.102c.819 1.396 1.211 2.96 1.747 4.453.273.759.717 3.197.923 3.974.216.812.71 4.531.862 5.353.06.32-.606.504-.688.18-.2-.777-.847-4.442-1.036-5.224-.189-.782-.534-3.245-.71-4.03a34.605 34.605 0 00-.584-2.339c-.109-.36-.278-.702-.387-1.061a9.167 9.167 0 01-.238-1.267c-.007-.044.084-.087.11-.04h.001zM29.208 32.07c.318 1.155.393 2.386.635 3.56.247 1.193.538 2.375.828 3.557.284 1.169.578 2.334.894 3.494.164.608.334 1.214.51 1.819.17.586.072 1.448.1 2.06.017.35-.404.345-.61 0-.306-.513-.191-1.149-.35-1.71-.171-.605-.338-1.212-.5-1.82-.324-1.22-.626-2.446-.914-3.674-.28-1.184-.565-2.368-.807-3.56-.234-1.173-.536-2.455-.347-3.675.039-.257.49-.282.556-.05h.005z" fill="#424575"/><path d="M30.822 41.751c.915-.77 2.274-.934 3.414-1.116a28.19 28.19 0 013.582-.339 57.293 57.293 0 007.518-.661c.597-.097.735.97.116 1.027-2.476.23-4.94.432-7.395.789-1.142.169-2.304.283-3.456.392-1.187.113-2.574.372-3.766-.038a.029.029 0 01-.02-.022.026.026 0 01.01-.028l-.003-.004zm35.382-4.194c-.768.627-1.911.788-2.869.958-.994.177-2 .295-3.012.353a51.965 51.965 0 00-6.322.7c-.502.09-.621-.743-.1-.803 2.081-.24 4.153-.459 6.218-.797.96-.16 1.937-.278 2.905-.392.999-.117 2.165-.353 3.169-.06a.022.022 0 01.017.017.02.02 0 01-.008.021l.002.003zm.414 3.695c-2.234 1.24-5.38 1.747-8.025 2.232-2.745.505-5.508.909-8.274 1.211a233.014 233.014 0 00-17.355 2.473c-1.387.257-1.513-1.164-.084-1.372 5.718-.831 11.402-1.621 17.098-2.62 2.648-.47 5.332-.868 7.992-1.258 2.743-.401 5.969-1.044 8.63-.736.022.002.038.012.042.026.003.014-.008.03-.028.04l.004.004zM55.389 7.77c-2.815-4.027-7.467-5.449-11.801-4.902a13.828 13.828 0 00-6.012 2.268c-1.94 1.313-3.118 3.269-4.723 4.964-.393.415-1.265-.02-.924-.658 2.458-4.611 7.076-7.639 11.908-8.06 4.257-.37 10.147 1.243 12.31 5.945.236.515-.459.87-.757.443h-.001zm2.596 18.508c-2.102 4.305-6.84 6.765-11.71 7.394-2.405.312-4.724.176-7.012-.445-2.437-.668-4.304-2.129-6.468-3.222-.53-.269-1.378.342-.851.822 3.802 3.467 9.582 4.97 14.963 4.102 4.742-.766 10.788-3.716 12.014-8.452.134-.519-.713-.656-.936-.2zM30.526 30.76c-.915.94-2.38 1.056-3.658.968-1.311-.096-2.63-.539-3.839-1.236-2.555-1.5-4.497-4.336-5.107-7.378-.591-2.977.1-5.902 1.653-8.15 1.698-2.44 4.455-3.85 7.314-4.17 1.677-.185 3.41-.07 5.07.638 1.593.69 3.089 1.682 4.483 2.805.44.345.117 1.087-.367.753-1.194-.806-2.358-1.67-3.649-2.278a9.238 9.238 0 00-4.032-.84c-2.661.044-5.258 1.1-7.085 3.05-1.552 1.671-2.534 4.075-2.455 6.62.082 2.77 1.424 5.563 3.512 7.369a9.222 9.222 0 003.736 1.942c1.334.335 3.092.478 4.214-.338.154-.108.326.111.21.244zm29.817-4.735c.955.806 2.348.798 3.543.614 1.226-.195 2.426-.715 3.497-1.463 2.26-1.607 3.81-4.416 4.086-7.31a10.111 10.111 0 00-2.362-7.49c-1.84-2.148-4.578-3.246-7.304-3.316-1.599-.04-3.222.206-4.716 1.001-1.433.773-2.745 1.82-3.949 2.982-.381.358-.002 1.027.421.675 1.046-.849 2.058-1.75 3.214-2.422a8.679 8.679 0 013.718-1.108c2.512-.172 5.064.61 6.978 2.286a8.993 8.993 0 012.967 5.997c.195 2.597-.794 5.316-2.585 7.173a8.532 8.532 0 01-3.33 2.115c-1.224.42-2.866.694-4.004.02-.156-.088-.296.13-.174.246z" fill="#424575"/><path d="M28.01 16.637c-1.76.885-4.158.593-4.458 2.897-.073.566-.992.99-1.33.33-1.425-2.775 3.251-4.351 5.498-4.211.54.034.823.718.29.985z" fill="#F2F2F9"/><path d="M12.921 24.262c0 .334.271.61.606.61a.609.609 0 000-1.22.609.609 0 00-.606.61zM0 8.519c0 .223.18.406.404.406a.406.406 0 000-.813A.406.406 0 000 8.52zm12.836 24.463h-1.51a.755.755 0 100 1.51h1.51a.755.755 0 100-1.51z" fill="#424575"/><path d="M20.83 4.147a1.12 1.12 0 102.239 0 1.12 1.12 0 00-2.24 0z" fill="#B4EFCE"/><path d="M20.728 3.863a1.041 1.041 0 002.084 0 1.041 1.041 0 00-2.084 0z" fill="#424575"/><path d="M3.686 19.626a1.225 1.225 0 011.782-1.683l.702.743a1.226 1.226 0 01-1.782 1.683l-.702-.743z" fill="#FFDA40"/><g clip-path="url(#clip0)"><path d="M3.923 18.42c.316.038.647-.008.966.014.16.01.337.024.497.035.104.019.232.007.327.075a.206.206 0 01.104.226 1.9 1.9 0 01-.094.434c-.027.151-.074.316-.1.467-.016.084-.048.165-.063.25a.871.871 0 01-.055.214l.07-.091c.04-.028.092-.018.023-.03-.035-.007-.073.004-.108-.002-.052-.01-.107-.002-.16-.011a2.898 2.898 0 00-.342.009l-.322-.005c-.107-.002-.22.03-.325.012.035.006.067.029.084.032l-.014-.02a.237.237 0 00-.017-.107c-.009-.053-.035-.11-.043-.163l-.104-.33c-.048-.234-.117-.454-.183-.69-.04-.077-.139-.129-.217-.09-.096.034-.131.132-.111.222.063.254.129.49.209.747.031.127.066.237.115.367.017.106.025.264.117.35.093.085.218.09.343.094.139.025.267.013.409.02l.391.018c.125.004.264.029.38-.02.152-.043.207-.154.234-.305l.065-.37.136-.772c.039-.218.077-.437-.087-.622-.119-.142-.322-.212-.513-.246-.261-.046-.534-.025-.804-.02-.29.018-.584.052-.84.18-.008.05-.02.118.032.127z" fill="#424575"/></g><path d="M8.823 6.39a1.539 1.539 0 003.079 0c0-.845-.694-1.53-1.54-1.53-.845 0-1.54.685-1.54 1.53z" fill="#E4BDF9"/><g clip-path="url(#clip1)" fill="#424575"><path d="M10.98 7.58c0-.055 0-.084-.03-.112-.029-.056-.029-.084-.058-.112a1.12 1.12 0 00-.147-.253 3.31 3.31 0 00-.234-.45 6.332 6.332 0 01-.265-.45c-.088-.141-.176-.31-.293-.45-.088-.085-.176-.113-.293-.057-.088.028-.147.113-.118.197a2.1 2.1 0 00.264.506c.088.141.176.31.294.45.088.141.205.282.293.45.03.057.088.141.147.197.03.029.059.057.088.113.059.028.088.056.117.084.088.057.264.029.235-.112z"/><path d="M11.186 6.202a3.8 3.8 0 00-.94.225 1.928 1.928 0 00-.469.17.995.995 0 00-.44.252c-.146.141-.03.366.176.366.088 0 .206 0 .294-.028s.176-.084.264-.113c.146-.056.293-.112.41-.168.264-.141.587-.282.793-.479.117-.084.029-.225-.088-.225z"/></g><defs><clipPath id="clip0"><path fill="#fff" transform="rotate(-80 13.811 8.065)" d="M0 0h2.439v2.439H0z"/></clipPath><clipPath id="clip1"><path fill="#fff" transform="translate(9.277 5.668)" d="M0 0h2.054v2.054H0z"/></clipPath></defs></svg>