<svg width="72" height="90" fill="none" xmlns="http://www.w3.org/2000/svg"><path d="M29.497 88.651l-4.227.517L8.36 28.299l1.272-2.362 4.268.953 15.597 61.76z" fill="#F27D66"/><path d="M71.535 75.22L47.23 81.856 26.435 86.66l-1.12 2.742L51.6 83.293l18.559-5.267 1.377-2.806z" fill="#DB5745"/><path d="M71.535 75.209l-21.517 5.959-23.739 5.21L9.522 26.012l45.175-11.466 16.838 60.663z" fill="#F0DBC0"/><path d="M23.375 26.206a11.784 11.784 0 00-.196-1.538l-.863.259a4.665 4.665 0 001 1.773c.49.568 1.232-.469.588-.836-.082-.046-.165-.087-.249-.129a.367.367 0 00-.406.047.443.443 0 00-.146.413c.025.091.049.18.078.27l.82-.518a5.138 5.138 0 01-.877-1.393c-.262-.556-1.037-.064-.773.49.104.212.215.424.306.636.081.223.179.44.291.647.053.094.158.14.256.11a.246.246 0 00.17-.236l.001.005zM66.51 73.134c-2.448.457-4.869 1.1-7.289 1.674-2.488.59-4.97 1.185-7.449 1.786a3626.263 3626.263 0 01-14.815 3.562l-8.25 1.96c-.65.156-.376 1.148.277.991 4.91-1.178 9.796-2.406 14.687-3.63 4.925-1.234 9.858-2.446 14.784-3.673 2.739-.681 5.516-1.281 8.225-2.076a.308.308 0 00-.165-.594h-.006z" fill="#F27D66"/><path d="M13.712 29.323c1.565 6.872 3.48 13.658 5.41 20.432 2.034 7.135 4.125 14.253 6.135 21.402a550.67 550.67 0 013.094 11.4c.15.589 1.049.334.896-.248-1.824-6.954-3.837-13.858-5.857-20.758-2.072-7.082-4.156-14.158-6.134-21.268a559.827 559.827 0 01-2.971-11.111c-.096-.373-.658-.214-.573.159v-.008zm47.133 8.439c-.688-3.09-1.629-6.12-2.415-9.185-.196-.787-.34-1.574-.518-2.361a50.107 50.107 0 00-.556-2.273 241.337 241.337 0 00-2.736-9.234.547.547 0 00-.661-.378 357.055 357.055 0 01-8.566 2.064c-2.861.661-5.71 1.409-8.543 2.186-1.41.394-2.834.72-4.248 1.098a336.94 336.94 0 00-4.35 1.216 533.12 533.12 0 01-4.418 1.236c-1.474.407-2.92.915-4.386 1.344-1.643.48-3.335.82-5.001 1.208-.788.16-1.568.362-2.335.604-.733.29-1.48.542-2.238.756-.21.049-.117.352.088.32a9.58 9.58 0 001.956-.62c.682-.24 1.376-.446 2.079-.615 1.475-.394 2.934-.85 4.408-1.266 1.475-.415 2.967-.737 4.461-1.076 1.495-.338 2.913-.771 4.373-1.14 2.895-.727 5.793-1.45 8.698-2.134 2.904-.685 5.799-1.202 8.695-1.842 3.22-.71 6.427-1.49 9.62-2.304l-.66-.378c.919 2.873 1.738 5.777 2.587 8.672.444 1.517.901 3.048 1.48 4.525.288.73.49 1.498.724 2.247.235.75.471 1.541.704 2.31.516 1.706 1.05 3.387 1.725 5.036a.02.02 0 00.014.014.02.02 0 00.02-.005.02.02 0 00.005-.02l-.006-.005z" fill="#F27D66"/><path d="M26.232 86.647c-.973-3.984-2.153-7.915-3.261-11.864-1.109-3.948-2.206-7.9-3.306-11.853a3013.153 3013.153 0 01-6.422-23.607c-.588-2.207-1.172-4.414-1.75-6.621-.593-2.251-1.138-4.514-1.797-6.757a.325.325 0 10-.626.175c.457 1.998 1.019 3.974 1.544 5.956a2361.749 2361.749 0 004.796 17.821c2.15 7.868 4.345 15.723 6.588 23.564 1.27 4.435 2.48 8.896 3.944 13.268a.154.154 0 10.298-.082h-.008zm-.925 2.79c-.971-3.98-2.148-7.907-3.252-11.85a3077.627 3077.627 0 01-9.75-35.74 4228.85 4228.85 0 01-1.769-6.687c-.582-2.22-1.12-4.463-1.77-6.658a.323.323 0 00-.544-.142.33.33 0 00-.081.316c.46 2.015 1.029 4.009 1.553 6.009l1.553 5.875c1.06 3.974 2.128 7.946 3.205 11.915 2.168 7.949 4.38 15.882 6.634 23.8 1.262 4.427 2.466 8.88 3.927 13.244a.154.154 0 10.297-.082h-.003zm29.277-74.694c.973 3.984 2.153 7.914 3.262 11.863 1.108 3.948 2.205 7.9 3.306 11.853 2.177 7.86 4.32 15.73 6.43 23.608a1505.81 1505.81 0 011.75 6.62c.594 2.252 1.138 4.514 1.798 6.757a.325.325 0 10.626-.174c-.457-1.998-1.02-3.974-1.544-5.956a2353.92 2353.92 0 00-4.796-17.82 2102.828 2102.828 0 00-6.588-23.566c-1.27-4.435-2.48-8.895-3.944-13.268a.154.154 0 10-.298.083h-.002z" fill="#424575"/><path d="M9.462 26.17c1.438-.285 2.847-.726 4.26-1.109 1.412-.383 2.803-.756 4.207-1.128 2.906-.767 5.815-1.523 8.727-2.268 5.88-1.495 11.772-2.938 17.678-4.33l4.92-1.166c1.608-.377 3.235-.708 4.83-1.14.462-.124.266-.797-.194-.707-1.455.284-2.895.66-4.337 1.003a1076.426 1076.426 0 00-13.075 3.17c-5.872 1.473-11.736 2.977-17.569 4.593-1.61.446-3.219.9-4.825 1.36-1.57.45-3.172.85-4.698 1.435a.148.148 0 00.078.284l-.002.002zM71.36 74.988c-1.44.323-2.847.795-4.265 1.206a305.9 305.9 0 01-4.268 1.2c-2.893.79-5.794 1.552-8.703 2.285-5.872 1.478-11.768 2.845-17.669 4.202l-4.899 1.124c-1.605.368-3.226.695-4.815 1.122-.462.125-.265.798.195.708 1.449-.282 2.885-.655 4.322-.99l4.32-1.005c2.923-.68 5.845-1.361 8.767-2.07 5.879-1.425 11.752-2.893 17.573-4.546 1.61-.458 3.217-.928 4.82-1.412 1.575-.474 3.18-.912 4.701-1.538a.148.148 0 00-.077-.284l-.002-.002zm-1.626 2.799c-1.44.323-2.846.796-4.265 1.206-1.418.41-2.842.801-4.268 1.19a441.5 441.5 0 01-8.703 2.285c-5.871 1.478-11.768 2.846-17.668 4.203l-4.9 1.124c-1.605.368-3.226.694-4.815 1.122-.462.125-.265.797.195.708 1.449-.282 2.885-.655 4.322-.99l4.32-1.005c2.923-.68 5.845-1.362 8.767-2.07 5.879-1.425 11.752-2.893 17.573-4.546 1.61-.458 3.217-.928 4.82-1.412 1.575-.475 3.18-.912 4.701-1.538a.148.148 0 00-.078-.284l-.001.007z" fill="#424575"/><path d="M51.577 19.459l-36.189 9.18a1.004 1.004 0 00-.721 1.232l13.832 51.58c.142.53.683.847 1.214.713l36.19-9.18a1.004 1.004 0 00.72-1.233L52.793 20.17a1.003 1.003 0 00-1.215-.712z" fill="#fff"/><path d="M23.466 27.13c.032.494.104.985.213 1.468.06.48.148.957.264 1.427.143.463.564.619 1.009.543.505-.086 1.009-.216 1.507-.343.436-.112.87-.234 1.302-.365l.645-.2c.2-.094.416-.148.636-.157.143.018.135.07.222.2.096.168.225.316.38.432.358.25.786.235 1.18.168 1.985-.327 3.964-.788 5.925-1.237.752-.171 1.584-.359 2.05-1.045.099-.153.175-.32.224-.496a1.14 1.14 0 01.05-.217c-.066.075.086 0 .107-.014.478-.156.96-.302 1.438-.453l1.574-.495c.462-.145 1.02-.267 1.377-.622.394-.399.358-.917.272-1.42a14.43 14.43 0 00-.382-1.694c-.197-.686-1.241-.4-1.062.297.115.401.192.813.228 1.23.01.187-.016.383 0 .566 0 .048-.045.188.024.076s-.087 0-.168.03c-.832.25-1.656.518-2.484.784-.73.235-1.834.369-2.14 1.196-.087.231-.071.487-.27.652-.25.168-.532.281-.828.331a100.59 100.59 0 01-5.249 1.223c-.344.071-.787.25-1.139.213-.104-.012-.067 0-.141-.078a4.062 4.062 0 00-.394-.494c-.63-.527-1.453-.154-2.124.063a28.314 28.314 0 01-2.146.61c-.247.031-.49.087-.724.168-.177.092-.083-.074-.03.08-.041-.122-.088-.24-.134-.36l-.29-.797a9.324 9.324 0 00-.55-1.368.196.196 0 00-.377.104l.006-.006z" fill="#D3D5DD"/><path d="M15.192 28.722c1.184-.232 2.349-.548 3.523-.808l3.578-.78c2.448-.538 4.88-1.17 7.317-1.756a1485.31 1485.31 0 0014.786-3.706c1.347-.35 2.691-.708 4.036-1.06 1.297-.339 2.654-.571 3.914-1.006a.21.21 0 00-.112-.406c-1.186.195-2.348.585-3.523.855-1.174.269-2.348.546-3.542.825a915.66 915.66 0 00-7.31 1.787 1515.8 1515.8 0 00-14.776 3.75c-1.346.35-2.681.738-4.022 1.113-1.297.363-2.616.667-3.914 1.061a.069.069 0 10.037.133l.008-.002zm14.225 53.464c1.232-.237 2.442-.606 3.661-.9l3.665-.886c2.443-.586 4.87-1.238 7.305-1.861 4.868-1.248 9.74-2.48 14.614-3.696 1.355-.334 2.71-.668 4.066-1 1.399-.342 2.82-.633 4.186-1.088a.284.284 0 10-.15-.547c-1.243.196-2.463.52-3.683.815l-3.662.894c-2.44.6-4.877 1.207-7.313 1.82a682.892 682.892 0 00-14.58 3.824c-1.346.37-2.684.771-4.022 1.171-1.378.407-2.796.743-4.15 1.223a.122.122 0 10.065.235l-.002-.004zm-.167.027c-.847-3.184-1.727-6.36-2.59-9.541-.973-3.58-1.941-7.16-2.906-10.743l-3.015-11.178c-.983-3.631-1.968-7.262-2.955-10.892-.883-3.244-1.772-6.485-2.668-9.724l-.308-1.094c-.153-.551-1.01-.318-.854.238.889 3.174 1.768 6.35 2.638 9.527.982 3.577 1.96 7.156 2.933 10.735 1.014 3.724 2.03 7.447 3.046 11.171.991 3.635 1.986 7.265 2.984 10.892.89 3.24 1.764 6.479 2.704 9.714l.315 1.084a.352.352 0 10.677-.197v.008z" fill="#424575"/><path d="M66.873 72.451c-.848-3.184-1.728-6.361-2.591-9.542-.973-3.58-1.942-7.162-2.907-10.745l-3.015-11.18c-.983-3.63-1.968-7.262-2.955-10.893-.883-3.244-1.773-6.486-2.67-9.726l-.3-1.087c-.154-.552-1.01-.318-.855.237.889 3.175 1.768 6.35 2.638 9.53.982 3.577 1.96 7.155 2.934 10.736 1.014 3.724 2.03 7.448 3.046 11.172.991 3.629 1.985 7.257 2.983 10.886.89 3.24 1.764 6.48 2.704 9.715l.315 1.084a.352.352 0 10.677-.196l-.004.01z" fill="#424575"/><path d="M23.636 24.57l18.012-4.564 1.142 4.507-18.012 4.565-1.142-4.507z" fill="#EFF0F4"/><path d="M23.918 25.436l17.786-4.507.571 2.254L24.49 27.69l-.571-2.254z" fill="#F8FAFF"/><path d="M29.743 26.28l7.88-1.996.685 2.704-7.88 1.997-.685-2.704z" fill="#EFF0F4"/><path d="M23.715 24.765c2.405-.457 4.77-1.108 7.141-1.71a963.06 963.06 0 007.039-1.814l1.98-.518c.649-.169 1.393-.27 1.986-.59a.382.382 0 00-.196-.705c-.59.014-1.178.25-1.75.394l-1.767.472c-1.178.315-2.356.624-3.544.947l-7.01 1.931c-1.338.367-2.674.75-3.987 1.201a.204.204 0 00.11.394l-.002-.002zm14.109.939c.887 0 1.784-.279 2.644-.465a98.484 98.484 0 001.747-.409c.287-.07.918-.114.98-.487l-.259.26c.463-.116.266-.834-.193-.72l.36.096c-.225-.291-.82-.03-1.104.044-.579.15-1.157.301-1.735.464-.845.24-1.763.41-2.54.837a.204.204 0 00.102.378l-.002.002zm-12.948 3.443c-.313.02-.362.457-.025.498.617.073 1.32-.215 1.91-.356.455-.114.914-.215 1.367-.346.29-.08.58-.163.87-.244.335-.095.732-.146 1.02-.363a.438.438 0 00.162-.464.387.387 0 00-.355-.304c-.333-.03-.676.13-.995.225l-.877.262c-.454.14-.905.292-1.354.429-.49.137-.972.3-1.446.491l-.292.13a.58.58 0 00-.11.053c-.049.036.027-.037.013 0 .058-.12.35.403.211.397 0 0-.064.047-.025.021l.025-.017a.237.237 0 00.091-.252.206.206 0 00-.194-.166l.004.006z" fill="#424575"/><path d="M25.316 28.983c-.014-.841-.337-1.681-.556-2.49a46 46 0 00-.343-1.2c-.121-.407-.188-.927-.45-1.272a.412.412 0 00-.446-.162.383.383 0 00-.293.357c-.027.407.206.85.32 1.237l.413 1.253c.275.793.481 1.67.948 2.386.05.079.15.116.243.092a.207.207 0 00.16-.195l.004-.006zM43.2 24.566c-.014-.841-.337-1.681-.555-2.49a45.992 45.992 0 00-.343-1.2c-.122-.407-.188-.927-.45-1.272a.412.412 0 00-.447-.162.383.383 0 00-.293.357c-.027.407.206.85.32 1.237l.413 1.253c.275.793.482 1.67.948 2.386.05.079.15.117.243.093a.207.207 0 00.16-.196l.004-.006zm-13.463 3.322c-.026.33.013.662.113.977.106.407.444.587.861.555.537-.037 1.09-.238 1.61-.37.602-.154 1.202-.312 1.803-.466l1.802-.468.8-.207c.252-.041.498-.11.734-.205a1.25 1.25 0 00.617-.94c.05-.366-.055-.678-.086-1.032a.272.272 0 00-.53-.073c-.179.468.207 1.275-.425 1.478-.916.295-1.895.465-2.832.696-.937.23-1.876.458-2.81.698-.305.078-.769.317-1.01.031-.172-.195-.244-.489-.39-.711-.06-.086-.236-.096-.253.033l-.004.004z" fill="#424575"/><path d="M33.233 39.47c-.141-.56.198-1.13.758-1.271l13.957-3.537a1.046 1.046 0 11.514 2.028l-13.957 3.537a1.046 1.046 0 01-1.272-.757zm1.876 7.116a1.045 1.045 0 01.757-1.27l15.083-3.823a1.046 1.046 0 01.514 2.028L36.38 47.343a1.046 1.046 0 01-1.271-.757zm3.716 14.646c-.142-.56.197-1.13.757-1.271l15.083-3.822a1.046 1.046 0 11.514 2.028l-15.083 3.822a1.046 1.046 0 01-1.27-.757zm-1.922-7.255c-.142-.56.197-1.13.757-1.272l11.03-2.795a1.046 1.046 0 11.514 2.028l-11.03 2.795a1.046 1.046 0 01-1.271-.756zM40.62 68.39c-.143-.56.196-1.13.756-1.272l11.03-2.795a1.046 1.046 0 11.514 2.029l-11.03 2.795a1.046 1.046 0 01-1.27-.758z" fill="#D3D5DD"/><path d="M25.32 42.622l.385-.838-.96-.435a.935.935 0 00-1.203.471.92.92 0 00.43 1.208l1.809.809a.918.918 0 01-.461-1.215z" fill="#E74970"/><path d="M28.31 38.1a.825.825 0 00-1.102.434l-1.427 3.093.762.362a.89.89 0 01.415 1.15l1.764-3.874a.91.91 0 00.026-.672.86.86 0 00-.439-.492z" fill="#3ECADD"/><path d="M26.408 42.117l-.846-.372-.393.818a.877.877 0 00.164.988.95.95 0 001.008.228.901.901 0 00.6-.814.897.897 0 00-.55-.848h.017z" fill="#664277"/><path d="M27.17 49.368l.385-.839-.953-.438a.935.935 0 00-1.202.47.92.92 0 00.43 1.21l1.809.807a.918.918 0 01-.47-1.21z" fill="#E74970"/><path d="M29.7 45.075a.824.824 0 00-1.1.433l-1.426 3.093.761.362c.417.2.601.713.415 1.15l1.773-3.89c.184-.44-.005-.952-.423-1.148z" fill="#3ECADD"/><path d="M28.26 48.858l-.846-.372-.387.82a.874.874 0 00.164.987.952.952 0 001.007.228.9.9 0 00.602-.813.895.895 0 00-.55-.846l.01-.004z" fill="#664277"/><path d="M8.533 28.579a6.505 6.505 0 011.155-2.435.263.263 0 00-.17-.438.267.267 0 00-.25.116 6.055 6.055 0 00-1.136 2.646c-.04.255.333.373.397.11h.004zM25.71 89.483c.311-.391.525-.869.803-1.29.277-.42.563-.844.84-1.265.227-.339-.322-.753-.607-.436-.367.405-.69.843-.964 1.308-.3.45-.53.936-.687 1.444a.306.306 0 00.194.365c.152.06.329.006.415-.126h.006zm44.593-11.391c.311-.391.526-.869.803-1.29.277-.42.563-.844.84-1.265.227-.339-.321-.753-.607-.436a8.03 8.03 0 00-.964 1.308c-.3.45-.53.936-.687 1.444a.306.306 0 00.194.365c.152.06.33.006.415-.126h.006zM4.994 22.678a10.225 10.225 0 00-1.14-.602c-.39-.2-.778-.388-1.147-.6a32.57 32.57 0 01-2.237-1.3c-.347-.224-.668.345-.32.566.747.474 1.51.918 2.29 1.332.737.39 1.545.872 2.357 1.063a.24.24 0 00.292-.14.255.255 0 00-.097-.315l.002-.004zm14.042-7.873c-.487-.727-1.17-1.309-1.796-1.928-.658-.66-1.329-1.31-1.995-1.97a989.531 989.531 0 01-3.9-3.917c-.352-.353-.895.182-.552.54a107.398 107.398 0 003.92 3.904c.662.625 1.324 1.252 2.007 1.857.682.606 1.322 1.262 2.114 1.703.116.065.268-.068.19-.185l.012-.004zm9.135-7.547c-.052-.576-.263-1.13-.43-1.69-.174-.592-.356-1.182-.534-1.777-.343-1.17-.684-2.342-1.021-3.514-.092-.317-.577-.179-.491.138.315 1.179.66 2.35 1.035 3.513.187.573.372 1.148.576 1.716.204.568.368 1.153.688 1.66.047.075.177.046.169-.047l.008.001zm11.211-.683c.439-.499.84-1.028 1.2-1.584.4-.558.788-1.128 1.175-1.694.2-.278-.26-.527-.453-.26a63.61 63.61 0 00-1.166 1.62 13.627 13.627 0 00-1.096 1.663c-.102.196.16.441.338.257l.002-.002zm29.426 18.889c.483-.23.948-.502 1.392-.814.479-.295.953-.601 1.426-.907a.328.328 0 00.142-.278.328.328 0 00-.145-.276.26.26 0 00-.285.002c-.477.3-.953.6-1.424.912a9.734 9.734 0 00-1.333.926.287.287 0 00-.033.313c.053.1.159.15.26.122zM57.25 11.518a9.63 9.63 0 00.994-1.27c.336-.451.664-.91.991-1.37a.329.329 0 00.03-.31.328.328 0 00-.236-.203.26.26 0 00-.265.107c-.333.455-.666.909-.988 1.373a9.736 9.736 0 00-.898 1.352.287.287 0 00.085.303c.086.074.203.081.286.018z" fill="#424575"/></svg>