<svg width="73" height="82" fill="none" xmlns="http://www.w3.org/2000/svg"><path d="M1.733 15.418a8.11 8.11 0 016.191-9.052C16.926 4.25 31.797.856 37.307.176 45.429-.89 47.447 3.16 48.252 5.127c.805 1.969 9.832-3.801 12.382 4.062 2.551 7.862 13.967 63.148 8.668 64.212-5.3 1.065-53.144 9.064-57.91 3.715-1.313-4.47-7.182-44.835-9.659-61.7z" fill="#E75671"/><path d="M5.77 10.7a.891.891 0 01.508-1.375C14.945 7.16 37.455 2.02 43.832 1.5 50.58.955 58.517 5.623 58.517 5.623L9.435 12.67 5.77 10.7z" fill="#E2D5BF"/><g fill="#424672"><path d="M8.754 13.82c2.476 18.968 6.39 37.752 8.84 56.733.174 1.35 2.304 1.4 2.155 0-2.08-19.154-5.881-38.037-9.67-56.957-.149-.73-1.424-.582-1.325.174v.05z"/><path d="M0 17.287c3.083 20.43 7.12 40.724 9.472 61.266 0 .47.322 1.065.867 1.14a77.842 77.842 0 009.348 1.423c3.987.1 8.333-1.164 12.283-1.77 13.1-2.031 26.498-4.148 39.82-4a1.09 1.09 0 000-2.167c-11.75-.247-23.525 1.35-35.14 3.034-5.163.743-10.673 2.303-15.885 2.476-1.56 0-8.581-.062-9.597-1.238.335.384 0-4.52-.148-5.163-.388-2.766-.8-5.522-1.238-8.271-.941-5.919-1.969-11.825-3.021-17.719-1.759-9.794-3.715-19.563-5.473-29.358-.161-.866-1.424-.482-1.238.36L0 17.287z"/><path d="M59.929 6.378c2.662 9.906 3.875 20.232 5.41 30.324a3723.08 3723.08 0 015.436 36.948c.161 1.238 2.266.916 2.118-.298-1.511-12.171-3.17-24.318-5.176-36.415-1.709-10.314-3.207-20.963-6.488-30.955a.681.681 0 00-1.238.36l-.062.036zm-.694-.63a186.968 186.968 0 00-50.073 6.896 1.238 1.238 0 00.657 2.353A451.924 451.924 0 0159.347 6.65c.57-.061.594-.903 0-.903h-.112z"/></g><path d="M19.947 8.496l6.724 35.289 4.296-7.788 6.674 5.77L31.908 6.28s-4.569-.73-11.96 2.216z" fill="#FFDB27"/><path d="M51.261 49.964c-2.563 6.005-11.8 4.84-16.443 2.662a.891.891 0 00-1.077 1.399c4.247 5.077 16.938 3.244 18.573-3.64.124-.57-.755-1.028-1.016-.421h-.037zM48.302 34.72a1.238 1.238 0 000-2.389 1.238 1.238 0 000 2.39z" fill="#424672"/></svg>