<svg width="78" height="85" fill="none" xmlns="http://www.w3.org/2000/svg"><path fill-rule="evenodd" clip-rule="evenodd" d="M7.912 53.481l-.072-.017c-.447-.106-.917.07-1.156.433-1.283 2.166-.867 6.655 2.152 7.507.604.17 1.376-.426 1.11-1.02-.418-.931-1.218-1.605-1.534-2.598-.343-1.08-.179-2.103.142-3.164a.876.876 0 00-.263-.916 1.054 1.054 0 00-.38-.225zm-5.506 1.268c-.696 1.568-.402 3.672.166 5.236.434 1.196 1.54 3.623 2.932 3.439.282-.01.504-.273.496-.59a.649.649 0 00-.015-.12c-.1-.627-.457-.89-.845-1.333a6.83 6.83 0 01-1.15-1.86c-.628-1.495-.483-2.874-.529-4.452-.017-.593-.79-.912-1.053-.32h-.002zM59.322 32.44c.867.667 1.702 1.06 2.267 2.002.453.754.664 1.748.29 2.463-.927 1.772 3.107 2.876 3.006.893-.074-1.483-.328-2.747-1.282-4.11-.778-1.111-2.202-2.448-3.7-2.625-.505-.077-.933.215-.955.654-.013.265.127.535.372.722h.002zm1.056-3.585c.674.864 1.948.71 2.93 1.08a7.75 7.75 0 013.203 2.238 6.83 6.83 0 011.51 3.257c.201 1.27-.195 2.431-.162 3.679.019.75 1.023 1.328 1.577.668 1.85-2.205.603-6.233-1.209-8.461a9.854 9.854 0 00-4-2.904c-1.113-.437-3.098-1.173-3.861-.107a.442.442 0 00.014.55h-.002z" fill="#424575"/><path fill-rule="evenodd" clip-rule="evenodd" d="M39.95 8.68a4.184 4.184 0 00-.402-1.5 5.465 5.465 0 00-1.333-1.746c-.611 1.488.111 3.106 1.785 4a2.85 2.85 0 01-.05-.754zm-.039-2.81c.186.504.337 1.027.45 1.564.396-.854.96-1.565 1.639-2.062-.608-.801-.985-1.836-1.07-2.938-.494.69-1.138 1.183-1.853 1.414L39 4.077c.395.516.704 1.126.911 1.793zm1.643-4.637a.525.525 0 01.219-.192c.055-.205.13-.408.227-.607-.842.296-1.504.761-1.879 1.322L39 3.434c1.224-.49 1.991-1.3 2.554-2.201z" fill="#FFC662"/><path fill-rule="evenodd" clip-rule="evenodd" d="M42.646.78a4.942 4.942 0 00.058 2.876c.273.822.78 1.346 1.259 1.982.248.027.429.268.404.538a.485.485 0 01-.31.418 6.024 6.024 0 00-1.753.889 6.15 6.15 0 00-1.145 1.29.967.967 0 01-.11.358.282.282 0 01-.049.063l.005.002c1.407.646 3.03-.072 3.623-1.604l1.154-2.98c.594-1.532-.067-3.297-1.474-3.943a2.544 2.544 0 00-1.681-.16.386.386 0 01.019.272z" fill="#FFC662"/><path fill-rule="evenodd" clip-rule="evenodd" d="M39.023 4.509a4.44 4.44 0 002.198-1.326 4.631 4.631 0 001.27 2.755 5.374 5.374 0 00-1.944 1.933 9.023 9.023 0 00-.534-1.466 5.101 5.101 0 00-1.08-1.681 2.158 2.158 0 00-.18-.15 4.48 4.48 0 00.272-.065h-.002zm-.339.84c.384.444.683.954.883 1.505.152.416.242.852.266 1.294-.011.217 0 .435.032.65a.879.879 0 00.107.247.301.301 0 00.514 0 .938.938 0 00.124-.366 6.52 6.52 0 011.284-1.322 7.006 7.006 0 011.965-.91.503.503 0 00-.106-.98c-.536-.65-1.104-1.186-1.411-2.029a4.644 4.644 0 01-.065-2.944.363.363 0 00-.022-.279.413.413 0 00-.754.066 5.394 5.394 0 00-.245.936.502.502 0 00-.156.216c-.402 1.014-.95 1.926-1.823 2.477a3.399 3.399 0 01-.988.419l-.012-.005c-.193-.06-.286.176-.18.309.203.254.401.484.587.715z" fill="#29235C"/><path fill-rule="evenodd" clip-rule="evenodd" d="M4.678 21.27a6.276 6.276 0 01-.9 1.578A6.56 6.56 0 012 24.434c.038-1.858 1.252-3.477 3-4a4.459 4.459 0 00-.322.836z" fill="#FFC662"/><path fill-rule="evenodd" clip-rule="evenodd" d="M3.663 21.743c.383-.406.73-.844 1.038-1.31.2.975.647 1.88 1.299 2.63a4.985 4.985 0 00-2.22 2.37 4.727 4.727 0 00-1.761-2.097L2 23.086a5.462 5.462 0 001.663-1.343zm-.741 5.955a.33.33 0 00.078.195c-.037.179-.058.36-.065.54-.458-.391-.734-.891-.784-1.42L2 25.434c.644.62.868 1.423.922 2.265z" fill="#FFC662"/><path fill-rule="evenodd" clip-rule="evenodd" d="M4.093 28.76c.023-.957.323-1.88.855-2.633.477-.667 1.08-.978 1.689-1.403.231.06.462-.102.515-.36a.507.507 0 00-.163-.49 6.266 6.266 0 01-1.333-1.412 6.522 6.522 0 01-.673-1.578.977.977 0 000-.368.315.315 0 00-.026-.074h.005c1.45-.12 2.713 1.091 2.82 2.705l.21 3.139c.108 1.614-.98 3.02-2.43 3.14A2.412 2.412 0 014 29.005a.365.365 0 00.093-.246z" fill="#FFC662"/><path fill-rule="evenodd" clip-rule="evenodd" d="M1.482 24.222c.074-.024.148-.052.219-.084a5.131 5.131 0 001.564-1.251 9.05 9.05 0 00.976-1.22 5.35 5.35 0 001.222 2.45 4.66 4.66 0 00-2.088 2.207 4.414 4.414 0 00-1.658-1.953 4.252 4.252 0 00-.235-.149zm-.603-.264c-.143.091-.13.344.072.349h.013c.304.193.575.433.803.71.651.8.877 1.838.931 2.927a.49.49 0 00.079.252 5.42 5.42 0 00-.065.7 4.748 4.748 0 00-.004.266.41.41 0 00.694.301.365.365 0 00.11-.257 4.658 4.658 0 011.007-2.77c.56-.701 1.27-1.028 1.988-1.475a.506.506 0 00.606-.379.501.501 0 00-.191-.516 6.97 6.97 0 01-1.57-1.486 6.496 6.496 0 01-.793-1.66.92.92 0 000-.387.301.301 0 00-.487-.162.885.885 0 00-.18.201c-.1.194-.181.396-.24.606-.165.41-.39.795-.668 1.141a4.83 4.83 0 01-1.319 1.148c-.25.16-.51.315-.786.491z" fill="#29235C"/><path fill-rule="evenodd" clip-rule="evenodd" d="M66.5 60.434c-.666 0-.667 2 0 2s.667-2 0-2zm-52.5 23c-1.332 0-1.334 1 0 1s1.333-1 0-1zm-12.5-43c-.666 0-.667 1 0 1s.667-1 0-1zm29 40c-.666 0-.667 1 0 1s.667-1 0-1z" fill="#424575"/><path fill-rule="evenodd" clip-rule="evenodd" d="M19 14.694c-.29-.42-.573-.84-.85-1.26-1.007.432-1.414 1.266-.974 2 .422-.33 1.292-.544 1.824-.74zm-.25.747c-.211.247-.5.79-.75.87.255.961.64 1.345 1 .996l-.245-1.873-.006.007zm1.216-2.43a.178.178 0 01.034-.01c-.22-.498-.635-.697-1-.48.116.304.23.608.344.913.201-.162.409-.303.622-.423z" fill="#E4BDF9"/><path fill-rule="evenodd" clip-rule="evenodd" d="M20.69 14.86l.048-.03c.512-.368.212-1.361-.366-1.247a.464.464 0 00-.074.017c-.46.197-.91.43-1.345.698-.246-.504-.494-1.008-.744-1.513-.037-.075-.073-.151-.111-.226-.139-.273-.417-.054-.324.219.025.074.054.147.08.22.199.544.402 1.087.61 1.63-.381.252-1.003.528-1.306.955a.963.963 0 00-.126.23.33.33 0 00.07.382c.023.027.046.055.07.055.117.04.24.05.362.033.452-.048.972-.376 1.352-.525l.01-.005.442 1.131.127.323c.208.519.925.054.671-.465l-.126-.26-.48-.995a8.749 8.749 0 001.16-.627z" fill="#424575"/><path fill-rule="evenodd" clip-rule="evenodd" d="M63 76.325a116.8 116.8 0 01-.85-1.891 2.473 2.473 0 00-.974 3c.421-.495 1.292-.815 1.824-1.109zm.966-.736a.138.138 0 01.034-.021c-.22-.996-.635-1.394-1-.96.116.608.23 1.217.344 1.826.2-.324.409-.606.622-.845zm1.034.845a8.854 8.854 0 01-1 .387l.414.613c.36-.245.574-.61.586-1z" fill="#E4BDF9"/><path fill-rule="evenodd" clip-rule="evenodd" d="M64.69 76.374l.048-.025c.512-.294.212-1.088-.366-.998a.631.631 0 00-.074.014c-.46.159-.91.346-1.345.56a233.23 233.23 0 00-.744-1.21l-.11-.18c-.14-.22-.418-.045-.325.174l.081.177c.198.434.4.868.608 1.303-.38.202-1.003.423-1.305.764a.747.747 0 00-.125.183.227.227 0 00.07.307c.022.022.045.044.069.044a.98.98 0 00.362.026c.453-.038.972-.3 1.351-.42.004 0 .008-.003.012-.004.146.302.293.604.441.905l.127.258c.208.415.925.044.671-.372l-.126-.208-.48-.796a9.62 9.62 0 001.16-.502z" fill="#424575"/><path fill-rule="evenodd" clip-rule="evenodd" d="M58.318 11.142c-.611.701-.315 1.625.662 2.064.942.423 2.181.241 2.817-.413-.038.024-.075.05-.117.071a1.862 1.862 0 01-1.233.166c-.33-.064-.609-.22-.775-.435a.686.686 0 01-.128-.362c-.056-.314.093-.63.404-.855.165-.117.37-.2.596-.24.362-.14.8-.135 1.154.015.113.047.215.105.302.175-.465-.757-1.697-1.1-2.751-.767-.386.122-.71.325-.932.581h.001z" fill="#B4EFCE"/><path fill-rule="evenodd" clip-rule="evenodd" d="M59.85 11.338l.023-.025.003-.003a.103.103 0 01-.026.03v-.002zm-.24.48v.03c-.006.036-.01.071-.018.109l.017-.14zm.024-.137v-.003c-.003.026-.008.052-.01.079l.01-.076zm.575-.88a1.23 1.23 0 00-.574.32 1.372 1.372 0 00-.389 1.14c.006.168.048.333.124.482.16.286.428.495.745.58a1.36 1.36 0 001.185-.221c.04-.028.076-.063.113-.095a1.74 1.74 0 00.489-.724 1.28 1.28 0 00-.583-1.461c-.34-.2-.762-.208-1.11-.021z" fill="#424575"/><path fill-rule="evenodd" clip-rule="evenodd" d="M74.074 51.603c.294 1.328 1.395 2.107 2.46 1.74 1.023-.354 1.646-1.645 1.42-2.94 0 .062 0 .123-.006.184-.042.525-.277.995-.637 1.271a1.012 1.012 0 01-.93.192 1.117 1.117 0 01-.439-.296c-.345-.306-.559-.793-.578-1.321a1.837 1.837 0 01.15-.797c.097-.477.387-.855.764-.998a.98.98 0 01.368-.07c-1.046-.445-2.182.252-2.539 1.557a3.09 3.09 0 00-.033 1.477v.001z" fill="#B4EFCE"/><path fill-rule="evenodd" clip-rule="evenodd" d="M75.414 49.832l.176.21c-.063-.072-.118-.147-.18-.217l.004.007z" fill="#B4EFCE"/><path fill-rule="evenodd" clip-rule="evenodd" d="M75.707 50.39l-.004-.034v-.003a.125.125 0 01.004.038zm.193.503c.008.007.014.015.022.021.023.028.047.055.069.087l-.09-.108zm-.086-.111v-.002l.051.061-.05-.059zm-.262-1.016c-.107.195-.16.415-.15.637.02.422.233.811.58 1.056.127.11.278.19.44.236.319.077.655.021.933-.153.361-.22.597-.596.639-1.016.006-.048.005-.098.006-.147a1.734 1.734 0 00-.205-.847 1.294 1.294 0 00-1.476-.562 1.123 1.123 0 00-.767.796z" fill="#424575"/><path fill-rule="evenodd" clip-rule="evenodd" d="M12.909 71.836a2 2 0 00-3.847 1.087c0-.05-.003-.099 0-.147.027-.421.25-.805.603-1.038.27-.183.604-.25.925-.183.163.04.315.116.446.221.354.234.58.616.613 1.038a1.22 1.22 0 01-.129.642 1.121 1.121 0 01-.738.823 1.204 1.204 0 01-.365.067 2.001 2.001 0 002.49-2.51h.002z" fill="#B4EFCE"/><path fill-rule="evenodd" clip-rule="evenodd" d="M11.15 72.591l.004.034v.004a.112.112 0 01-.005-.038zm-.21-.496l-.023-.02c-.024-.028-.049-.053-.071-.084l.094.104zm.09.11v.002c-.019-.019-.035-.04-.054-.06l.053.058zm.295 1.006c.101-.198.146-.42.13-.641a1.372 1.372 0 00-.616-1.036 1.163 1.163 0 00-.447-.222c-.322-.066-.656 0-.928.184a1.344 1.344 0 00-.605 1.036c-.004.049 0 .098 0 .147.005.296.085.585.233.842a1.294 1.294 0 001.494.513 1.12 1.12 0 00.739-.823z" fill="#424575"/><ellipse cx="44.5" cy="82" rx="1.5" ry="1" fill="#6B6FB3"/><rect x="21.656" y="21.488" width="29.458" height="54.596" rx="3" transform="rotate(-.24 21.656 21.488)" fill="#424575"/><mask id="a" maskUnits="userSpaceOnUse" x="23" y="19" width="27" height="53"><rect x="23.283" y="19.911" width="26.174" height="51.894" rx="2" transform="rotate(-.24 23.283 19.911)" fill="#F2F6FA"/></mask><g mask="url(#a)"><rect x="23.053" y="24.393" width="26.65" height="48.578" rx="2" transform="rotate(-.24 23.053 24.393)" fill="#fff"/><path fill-rule="evenodd" clip-rule="evenodd" d="M46.684 45.341c-4.465-7.66-1.876-17.489 5.784-21.954L79.616 7.563c7.66-4.465 17.488-1.875 21.953 5.785s1.875 17.488-5.784 21.953L68.637 51.125c-7.66 4.465-17.488 1.876-21.953-5.784z" fill="#664277"/><path fill-rule="evenodd" clip-rule="evenodd" d="M-29.04 84.593c-4.465-7.66-1.875-17.488 5.784-21.953L3.892 46.815c7.66-4.466 17.489-1.876 21.954 5.784s1.875 17.488-5.785 21.953L-7.085 90.378c-7.66 4.465-17.489 1.875-21.954-5.785zm69.023-38.59a1.767 1.767 0 00-2.45.01l-1.385 1.358 1.23 1.187c.68.656.684 1.723.01 2.384l2.605-2.556a1.654 1.654 0 00-.01-2.383z" fill="#3ECADD"/><path fill-rule="evenodd" clip-rule="evenodd" d="M37.378 48.558l-1.23-1.187-1.22 1.197a1.654 1.654 0 00.01 2.384 1.766 1.766 0 002.45-.01 1.654 1.654 0 00-.01-2.384z" fill="#664277"/><path fill-rule="evenodd" clip-rule="evenodd" d="M34.928 48.568l1.22-1.197-1.396-1.347a1.767 1.767 0 00-2.45.01 1.654 1.654 0 00.01 2.385l2.626 2.533a1.654 1.654 0 01-.01-2.384z" fill="#FA476F"/></g></svg>